<?xml version="1.0" encoding="UTF-8" standalone="no"?>
<svg
   width="300"
   height="73"
   viewBox="0 0 300 73"
   fill="none"
   version="1.1"
   id="svg44"
   sodipodi:docname="logo-main.svg"
   inkscape:version="1.3.2 (091e20ef0f, 2023-11-25)"
   xmlns:inkscape="http://www.inkscape.org/namespaces/inkscape"
   xmlns:sodipodi="http://sodipodi.sourceforge.net/DTD/sodipodi-0.dtd"
   xmlns="http://www.w3.org/2000/svg"
   xmlns:svg="http://www.w3.org/2000/svg">
  <defs
     id="defs44" />
  <sodipodi:namedview
     id="namedview44"
     pagecolor="#ffffff"
     bordercolor="#000000"
     borderopacity="0.25"
     inkscape:showpageshadow="2"
     inkscape:pageopacity="0.0"
     inkscape:pagecheckerboard="0"
     inkscape:deskcolor="#d1d1d1"
     inkscape:zoom="1.5541667"
     inkscape:cx="131.26005"
     inkscape:cy="17.372654"
     inkscape:window-width="1280"
     inkscape:window-height="1015"
     inkscape:window-x="45"
     inkscape:window-y="29"
     inkscape:window-maximized="0"
     inkscape:current-layer="svg44" />
  <path
     d="M34.6601 58.5392L31.9641 55.8511V52.3935L32.7336 51.6223V48.9359L31.9641 48.1647H24.2631L22.724 49.7037H16.5605L16.1731 50.0885V50.8562H23.4901L25.031 49.3173H31.5767V50.8562H25.4149L23.8758 52.3935H15.4053L13.0914 50.0885C13.0914 50.0885 13.3468 48.2896 12.7075 47.397L11.9362 48.5495H6.16005V48.9359L5.00483 49.7037V51.241H6.54398L5.77612 52.0088H5.00654V52.7765L5.39047 53.1613H8.49621L7.72663 55.4663H6.5457L3.85132 53.1613H0.383932L0 53.546V54.6986H3.08003L8.47221 60.0833H3.08003L2.69438 60.4629L2.69609 61.612H11.6482L13.4736 59.7002C13.4736 59.7002 16.713 60.0764 19.7399 58.2297C21.8053 56.9677 23.8723 56.6667 23.8723 56.6667L23.8758 60.0764H21.1797L20.794 60.4629V61.612H21.1797H25.031L29.2697 57.3866L32.3497 60.0764H30.0375L29.6519 60.4629V61.612H30.0375H34.2745L34.6636 61.2289L34.6601 58.5392Z"
     fill="#707173"
     id="path1"
     style="fill:#d9d9d9;fill-opacity:1" />
  <path
     d="M34.6601 38.1478L31.9641 35.4597V32.0022L32.7336 31.2327V28.5446L31.9641 27.7734H24.2631L22.724 29.3124H16.5605L16.1731 29.6971V30.4649H23.4901L25.031 28.9259H31.5767V30.4649H25.4149L23.8758 32.0004L15.4053 32.0022L13.0914 29.6971C13.0914 29.6971 13.3468 27.8982 12.7075 27.0056L11.9362 28.1581H6.16005V28.5446L5.00483 29.3124V30.8496H6.54398L5.77612 31.6174H5.00654V32.3852L5.39047 32.7699H8.49621L7.72663 35.075H6.5457L3.85132 32.7699H0.383932L0 33.153V34.3055L3.08003 34.3072L8.47221 39.6919H3.08003L2.69438 40.0715L2.69609 41.2206H11.6482L13.4736 39.3089C13.4736 39.3089 16.713 39.6851 19.7399 37.84C21.8053 36.5763 23.8723 36.2754 23.8723 36.2754L23.8758 39.6851H21.1797L20.794 40.0715V41.2206H21.1797H25.031L29.2697 36.9953L32.3497 39.6851H30.0375L29.6519 40.0715V41.2206H30.0375H34.2745L34.6636 40.8376L34.6601 38.1478Z"
     fill="#707173"
     id="path2"
     style="fill:#d9d9d9;fill-opacity:1" />
  <path
     d="M34.6601 17.758L31.9641 15.0682V11.6107L32.7336 10.8412V8.15311L31.9641 7.38362H24.2631L22.724 8.92089H16.5605L16.1748 9.30563V10.0734H23.4918L25.0327 8.53614H31.5784V10.0734H25.4166L23.8775 11.6107H15.4053L13.0914 9.30563C13.0914 9.30563 13.3468 7.50845 12.7075 6.61584L11.9362 7.76837H6.16005V8.15311L5.00654 8.92089V10.4582H6.5457L5.77612 11.2242H5.00654V11.9937L5.39047 12.3767H8.49621L7.72492 14.6852H6.5457L3.85132 12.3785H0.383932L0 12.7632V13.9157L3.08003 13.9174L8.47221 19.2987H3.08003L2.69438 19.6783L2.69609 20.8308H11.6482L13.4736 18.9174C13.4736 18.9174 16.713 19.2936 19.7399 17.4485C21.8053 16.1866 23.8723 15.8839 23.8723 15.8839L23.8758 19.2953H21.1797L20.794 19.6783V20.8308H21.1797H25.031L29.2697 16.6055L32.3497 19.2953H30.0375L29.6519 19.6783V20.8308H30.0375H34.2745L34.6636 20.4478L34.6601 17.758Z"
     fill="#707173"
     id="path3"
     style="fill:#d9d9d9;fill-opacity:1" />
  <path
     d="M55.6851 4.11248V68.2279L51.5664 72.3404V0L55.6851 4.11248Z"
     fill="#707173"
     id="path4"
     style="fill:#d9d9d9;fill-opacity:1" />
  <path
     d="M79.3561 22.159V16.2511H74.1284V22.159H71.6123V7.85681H74.1284V13.8588H79.3561V7.85681H81.8722V22.159H79.3561Z"
     fill="#707173"
     id="path5"
     style="fill:#d9d9d9;fill-opacity:1" />
  <path
     d="M93.8484 20.6051C93.6582 20.8941 93.0566 21.5148 92.6983 21.7782C92.2184 22.1133 91.5465 22.2809 90.9484 22.2809H88.6945C88.0946 22.2809 87.4484 22.1133 86.9685 21.7782C86.6086 21.5148 85.9847 20.8941 85.791 20.6051C85.4585 20.152 85.3848 19.6253 85.3848 19.1465V14.8425C85.3848 14.3637 85.4585 13.837 85.791 13.3822C85.9829 13.0949 86.6086 12.4981 86.9685 12.2348C87.4484 11.8996 88.0946 11.7081 88.6945 11.7081H90.9484C91.5465 11.7081 92.2167 11.8996 92.6983 12.2348C93.0566 12.4981 93.6582 13.0949 93.8484 13.3822C94.1844 13.837 94.2564 14.3637 94.2564 14.8425V19.1465C94.2564 19.6253 94.1844 20.152 93.8484 20.6051ZM87.7826 19.2662C87.7826 19.4577 88.2865 19.8168 88.5745 19.9844C88.5745 19.9844 88.6208 20.0083 88.7185 20.0083H90.9244C90.9724 20.0083 91.0204 19.9844 91.0666 19.9605C91.2826 19.8408 91.8345 19.4577 91.8585 19.2662V14.9126C91.8585 14.8887 91.8585 14.8425 91.8345 14.7707C91.6905 14.5313 91.3306 14.1722 91.0426 14.0046C90.9964 13.9807 90.9724 13.9807 90.9244 13.9807H88.7185C88.6722 13.9807 88.6448 13.9807 88.5985 14.0046C88.3123 14.1722 87.9763 14.4834 87.8083 14.7707C87.7826 14.8169 87.7826 14.9126 87.7826 14.9126V19.2662Z"
     fill="#707173"
     id="path6"
     style="fill:#d9d9d9;fill-opacity:1" />
  <path
     d="M100.21 19.1221C100.21 19.1221 100.21 19.1939 100.256 19.2657C100.426 19.553 100.736 19.7924 101.023 19.9583C101.023 19.9583 101.122 20.0078 101.168 20.0078H103.516C103.756 20.0078 104.26 19.553 104.404 19.3854C104.404 19.3854 104.43 19.3615 104.478 19.2897L106.708 19.9583C106.466 20.5328 105.558 21.4664 105.172 21.7298C104.716 22.0393 104.02 22.2787 103.444 22.2787H101.144C100.543 22.2787 99.8742 22.1111 99.3943 21.7777C99.0343 21.5143 98.4344 20.8919 98.2425 20.6046C97.91 20.1498 97.8105 19.6248 97.8105 19.146V14.8403C97.8105 14.3615 97.91 13.8366 98.2425 13.3817C98.4344 13.0944 99.0343 12.4959 99.3943 12.2343C99.8742 11.8992 100.544 11.7076 101.144 11.7076H103.35C103.924 11.7076 104.62 11.9949 105.076 12.3044C105.458 12.5678 106.394 13.5014 106.634 14.076L104.38 14.7445C104.38 14.7445 104.356 14.6967 104.308 14.6488C104.164 14.4812 103.66 13.9802 103.422 13.9802H101.168C101.122 13.9802 101.072 13.9802 101.023 14.0041C100.736 14.17 100.4 14.4333 100.232 14.7206C100.208 14.7685 100.208 14.8882 100.208 14.8882V19.1221H100.21Z"
     fill="#707173"
     id="path7"
     style="fill:#d9d9d9;fill-opacity:1" />
  <path
     d="M115.696 14.9122C115.696 14.8403 115.67 14.7925 115.67 14.7925C115.502 14.5052 115.166 14.17 114.906 14.0042C114.88 13.9802 114.834 13.9802 114.76 13.9802H113.108C112.792 13.9802 111.93 14.6967 111.644 15.0558V22.159H109.246V7.85681H111.642V12.2805C112.05 11.9949 112.552 11.7077 113.056 11.7077H114.782C115.358 11.7077 116.054 11.8992 116.508 12.2343C116.894 12.496 117.47 13.1423 117.66 13.4057C117.974 13.8605 118.092 14.3393 118.092 14.8643V22.159H115.696V14.9122Z"
     fill="#707173"
     id="path8"
     style="fill:#d9d9d9;fill-opacity:1" />
  <path
     d="M124.234 20.0083H126.872C127.16 20.0083 127.734 19.4817 127.734 19.1482V18.5737C127.734 18.454 127.686 18.2624 127.422 18.2385C126.584 18.1667 124.858 18.047 123.491 17.9273C122.22 17.8315 121.238 17.0176 121.238 15.4872V14.7707C121.238 14.244 121.357 13.7413 121.67 13.3104C122.34 12.3545 123.252 11.7081 124.45 11.7081H126.752C127.326 11.7081 128.022 11.9475 128.478 12.2587C128.864 12.5221 129.798 13.454 130.036 14.0286L127.782 14.6972C127.782 14.6972 127.758 14.651 127.71 14.6031C127.566 14.4355 127.062 13.9807 126.823 13.9807H124.522C124.522 13.9807 124.306 13.9807 124.209 14.0286C124.113 14.0764 123.802 14.3158 123.66 14.5792C123.66 14.5792 123.635 14.6271 123.635 14.8186V15.3897C123.635 15.4615 123.753 15.677 123.993 15.7009C124.617 15.7727 126.44 15.9164 127.757 16.06C129.051 16.2036 130.131 16.9458 130.131 18.5241V19.1927C130.131 19.7193 129.987 20.2221 129.675 20.653C129.483 20.9386 128.98 21.4892 128.597 21.7525C128.118 22.0877 127.491 22.2792 126.895 22.2792H124.305C123.731 22.2792 123.035 22.0158 122.579 21.7046C122.195 21.4413 121.285 20.5093 121.043 19.9348L123.273 19.2645L123.343 19.3602C123.492 19.5278 123.994 19.9844 124.234 20.0083Z"
     fill="#707173"
     id="path9"
     style="fill:#d9d9d9;fill-opacity:1" />
  <path
     d="M135.171 19.1226C135.171 19.1226 135.171 19.1944 135.218 19.2662C135.387 19.5535 135.697 19.7929 135.984 19.9587C135.984 19.9587 136.081 20.0083 136.129 20.0083H138.478C138.718 20.0083 139.221 19.5535 139.365 19.3859C139.365 19.3859 139.391 19.362 139.437 19.2901L141.669 19.9587C141.427 20.5333 140.519 21.4669 140.133 21.7303C139.677 22.0398 138.981 22.2792 138.406 22.2792H136.107C135.506 22.2792 134.837 22.1116 134.357 21.7781C133.997 21.5148 133.397 20.8924 133.205 20.6051C132.871 20.1503 132.773 19.6253 132.773 19.1465V14.8408C132.773 14.362 132.871 13.837 133.205 13.3822C133.397 13.0949 133.997 12.4964 134.357 12.2348C134.837 11.8996 135.507 11.7081 136.107 11.7081H138.313C138.887 11.7081 139.581 11.9954 140.039 12.3049C140.421 12.5682 141.357 13.5019 141.597 14.0764L139.343 14.745C139.343 14.745 139.319 14.6972 139.271 14.6493C139.127 14.4817 138.623 13.9807 138.385 13.9807H136.131C136.083 13.9807 136.035 13.9807 135.985 14.0046C135.699 14.1705 135.363 14.4338 135.195 14.7211C135.171 14.769 135.171 14.8887 135.171 14.8887V19.1226Z"
     fill="#707173"
     id="path10"
     style="fill:#d9d9d9;fill-opacity:1" />
  <path
     d="M150.66 14.9122C150.66 14.8403 150.635 14.7925 150.635 14.7925C150.468 14.5052 150.132 14.17 149.869 14.0042C149.845 13.9802 149.795 13.9802 149.725 13.9802H148.071C147.757 13.9802 146.895 14.6967 146.607 15.0558V22.159H144.209V7.85681H146.607V12.2805C147.013 11.9949 147.517 11.7077 148.023 11.7077H149.747C150.323 11.7077 151.017 11.8992 151.475 12.2343C151.857 12.496 152.433 13.1423 152.625 13.4057C152.938 13.8605 153.057 14.3393 153.057 14.8643V22.159H150.66V14.9122Z"
     fill="#707173"
     id="path11"
     style="fill:#d9d9d9;fill-opacity:1" />
  <path
     d="M162.899 22.1595L162.827 21.561C162.397 21.8723 161.869 22.2553 161.317 22.2553H159.518C158.916 22.2553 158.247 22.0877 157.768 21.7526C157.406 21.4892 156.808 20.8685 156.617 20.5812C156.282 20.1264 156.186 19.5997 156.186 19.1226V11.8279H158.582V19.0765C158.582 19.1004 158.582 19.1962 158.607 19.244C158.75 19.5057 159.134 19.7929 159.396 19.9605C159.446 19.9845 159.47 19.9845 159.542 19.9845H161.242C161.483 19.9845 162.347 19.3637 162.659 19.0286V11.8279H165.052V20.0323L165.268 22.1612H162.899V22.1595Z"
     fill="#707173"
     id="path12"
     style="fill:#d9d9d9;fill-opacity:1" />
  <path
     d="M168.677 22.159C168.605 21.6802 168.438 20.8441 168.438 20.3892V7.85681H170.835V20.1259C170.835 20.5807 170.953 21.0834 171.051 22.159H168.677Z"
     fill="#707173"
     id="path13"
     style="fill:#d9d9d9;fill-opacity:1" />
  <path
     d="M176.883 18.2129V19.1226C176.883 19.1944 176.903 19.2423 176.903 19.2423C177.121 19.6014 177.601 20.0083 177.841 20.0083H180.167C180.405 20.0083 180.909 19.5535 181.053 19.3859C181.079 19.362 181.127 19.2901 181.127 19.2901L183.357 19.9587C183.117 20.5333 182.205 21.4669 181.821 21.7303C181.365 22.0398 180.669 22.2792 180.097 22.2792H177.841C177.243 22.2792 176.571 22.1116 176.091 21.7781C175.735 21.5148 175.131 20.8924 174.943 20.629C174.627 20.1981 174.483 19.6732 174.483 19.1465V14.8408C174.483 14.3158 174.627 13.8131 174.943 13.3822C175.131 13.1189 175.735 12.4964 176.091 12.2348C176.571 11.8996 177.245 11.7081 177.841 11.7081H180.047C180.648 11.7081 181.317 11.8996 181.797 12.2348C182.157 12.4964 182.755 13.0949 182.949 13.3822C183.281 13.837 183.379 14.362 183.379 14.8408V18.2129H176.883ZM180.981 14.8887C180.981 14.8887 180.981 14.769 180.957 14.745C180.813 14.5056 180.453 14.1722 180.167 14.0046C180.117 13.9807 180.067 13.9807 180.021 13.9807H177.841C177.601 13.9807 177.121 14.3859 176.903 14.745C176.883 14.7929 176.883 14.8887 176.883 14.8887V15.966H180.981V14.8887Z"
     fill="#707173"
     id="path14"
     style="fill:#d9d9d9;fill-opacity:1" />
  <path
     d="M200.669 22.1602L197.455 16.4917H195.152V22.1602H192.636V7.88196H199.37C199.948 7.88196 200.621 8.07347 201.099 8.40863C201.434 8.64803 202.152 9.41238 202.369 9.7236C202.656 10.1545 202.801 10.6795 202.801 11.1822V13.2393C202.801 13.766 202.656 14.267 202.369 14.6979C202.152 15.0091 201.434 15.7273 201.099 15.9667C200.909 16.1086 200.498 16.2779 200.21 16.3241L203.641 22.1602H200.669ZM200.283 11.2061C200.283 11.2061 200.284 11.0625 200.261 11.0386C200.116 10.7752 199.732 10.2964 199.495 10.2742H199.372H195.154V14.1011H199.372C199.589 14.1011 200.069 13.6223 200.263 13.2872C200.263 13.2872 200.285 13.2393 200.285 13.1914V11.2061H200.283Z"
     fill="#707173"
     id="path15"
     style="fill:#d9d9d9;fill-opacity:1" />
  <path
     d="M208.777 18.2129V19.1226C208.777 19.1944 208.803 19.2423 208.803 19.2423C209.019 19.6014 209.499 20.0083 209.737 20.0083H212.061C212.303 20.0083 212.806 19.5535 212.95 19.3859C212.974 19.362 213.021 19.2901 213.021 19.2901L215.254 19.9587C215.011 20.5333 214.099 21.4669 213.718 21.7303C213.264 22.0398 212.57 22.2792 211.992 22.2792H209.739C209.139 22.2792 208.47 22.1116 207.989 21.7781C207.629 21.5148 207.029 20.8924 206.837 20.629C206.525 20.1981 206.381 19.6732 206.381 19.1465V14.8408C206.381 14.3158 206.525 13.8131 206.837 13.3822C207.029 13.1189 207.629 12.4964 207.989 12.2348C208.468 11.8996 209.139 11.7081 209.739 11.7081H211.944C212.544 11.7081 213.216 11.8996 213.696 12.2348C214.053 12.4964 214.654 13.0949 214.844 13.3822C215.18 13.837 215.276 14.362 215.276 14.8408V18.2129H208.777ZM212.877 14.8887C212.877 14.8887 212.877 14.769 212.853 14.745C212.707 14.5056 212.349 14.1722 212.059 14.0046C212.015 13.9807 211.965 13.9807 211.917 13.9807H209.735C209.497 13.9807 209.017 14.3859 208.801 14.745C208.775 14.7929 208.775 14.8887 208.775 14.8887V15.966H212.877V14.8887Z"
     fill="#707173"
     id="path16"
     style="fill:#d9d9d9;fill-opacity:1" />
  <path
     d="M225.468 22.1595L225.396 21.561C224.964 21.8723 224.439 22.2553 223.886 22.2553H222.088C221.486 22.2553 220.816 22.0877 220.336 21.7526C219.978 21.4892 219.38 20.8685 219.186 20.5812C218.852 20.1264 218.754 19.5997 218.754 19.1226V11.8279H221.153V19.0765C221.153 19.1004 221.153 19.1962 221.176 19.244C221.321 19.5057 221.705 19.7929 221.968 19.9605C222.016 19.9845 222.04 19.9845 222.11 19.9845H223.814C224.052 19.9845 224.916 19.3637 225.226 19.0286V11.8279H227.624V20.0323L227.84 22.1612H225.468V22.1595Z"
     fill="#707173"
     id="path17"
     style="fill:#d9d9d9;fill-opacity:1" />
  <path
     d="M234.384 18.9545C234.384 18.9545 234.384 19.0503 234.408 19.0982C234.552 19.3615 235.006 19.8882 235.342 19.8882H237.332V22.159H235.318C234.719 22.159 234.071 21.9932 233.592 21.658C233.208 21.3947 232.631 20.7483 232.441 20.485C232.13 20.0301 231.985 19.5051 231.985 18.9785V14.0999H230.377V11.8274H231.985V7.85681H234.383V11.8274H237.353V14.0999H234.383V18.9545H234.384Z"
     fill="#707173"
     id="path18"
     style="fill:#d9d9d9;fill-opacity:1" />
  <path
     d="M241.095 22.1595C241.025 21.6807 240.855 20.8445 240.855 20.3897V7.8573H243.252V20.1264C243.252 20.5812 243.37 21.0839 243.468 22.1595H241.095Z"
     fill="#707173"
     id="path19"
     style="fill:#d9d9d9;fill-opacity:1" />
  <path
     d="M247.664 7.97705H250.232V10.5352H247.664V7.97705ZM247.76 11.8262H250.156V22.1596H247.76V11.8262Z"
     fill="#707173"
     id="path20"
     style="fill:#d9d9d9;fill-opacity:1" />
  <path
     d="M260.878 22.159V14.8899C260.878 14.866 260.878 14.7941 260.85 14.7463C260.708 14.4829 260.372 14.1717 260.106 14.0041C260.082 13.9802 259.986 13.9802 259.916 13.9802H258.238C257.781 13.9802 257.133 14.6266 256.822 14.9617V22.1607H254.426V13.9545L254.185 11.8256H256.56L256.654 12.3762C257.085 12.065 257.616 11.7076 258.166 11.7076H259.938C260.538 11.7076 261.21 11.8974 261.69 12.2326C262.047 12.4959 262.65 13.0944 262.84 13.38C263.176 13.8348 263.27 14.3615 263.27 14.8403V22.159H260.878Z"
     fill="#707173"
     id="path21"
     style="fill:#d9d9d9;fill-opacity:1" />
  <path
     d="M275.433 13.9802V23.0208C275.433 23.5236 275.362 24.0742 275.026 24.5273C274.834 24.8163 274.234 25.4131 273.875 25.6764C273.395 26.0116 272.699 26.2031 272.125 26.2031H270.016C269.44 26.2031 268.745 25.9397 268.29 25.6285C267.903 25.3652 266.995 24.4333 266.755 23.8587L268.983 23.1884C268.983 23.1884 269.012 23.2363 269.058 23.2842C269.199 23.4517 269.704 23.9305 269.944 23.9305H272.102C272.15 23.9305 272.198 23.9066 272.246 23.8826C272.464 23.7629 273.012 23.332 273.038 23.1405V22.9746V21.6819C272.63 21.9692 272.128 22.2565 271.622 22.2565H269.778C269.2 22.2565 268.51 22.0649 268.028 21.7298C267.646 21.4665 267.07 20.8201 266.876 20.5585C266.54 20.1036 266.444 19.5769 266.444 19.0742V14.8882C266.444 14.3872 266.54 13.8605 266.876 13.4056C267.07 13.1423 267.646 12.4976 268.028 12.2343C268.508 11.8992 269.2 11.7076 269.778 11.7076H271.622C272.198 11.7076 272.774 12.0189 273.206 12.354L273.278 11.8273H275.652L275.433 13.9802ZM271.55 19.9839C271.55 19.9839 271.67 19.9839 271.72 19.96C272.15 19.7445 272.726 19.2418 273.038 18.8844V15.1054C272.702 14.7463 271.912 13.9802 271.552 13.9802H269.802C269.754 13.9802 269.704 14.0041 269.658 14.0281C269.394 14.1957 269.032 14.5308 268.866 14.8181C268.841 14.866 268.841 14.9378 268.841 14.9378V19.028C268.841 19.028 268.841 19.1221 268.866 19.17C269.032 19.4572 269.394 19.7924 269.658 19.96C269.704 19.9839 269.776 19.9839 269.802 19.9839H271.55Z"
     fill="#707173"
     id="path22"
     style="fill:#d9d9d9;fill-opacity:1" />
  <path
     d="M281.525 18.2124V19.1221C281.525 19.1939 281.545 19.2418 281.545 19.2418C281.763 19.6009 282.243 20.0078 282.483 20.0078H284.809C285.047 20.0078 285.551 19.553 285.695 19.3854C285.722 19.3615 285.768 19.2897 285.768 19.2897L287.997 19.9583C287.758 20.5328 286.846 21.4664 286.463 21.7298C286.005 22.0393 285.311 22.2787 284.738 22.2787H282.483C281.885 22.2787 281.211 22.1111 280.733 21.7777C280.376 21.5143 279.773 20.8919 279.584 20.6286C279.269 20.1976 279.125 19.6727 279.125 19.146V14.8403C279.125 14.3153 279.269 13.8126 279.584 13.3817C279.773 13.1184 280.376 12.4959 280.733 12.2343C281.211 11.8992 281.886 11.7076 282.483 11.7076H284.69C285.288 11.7076 285.959 11.8992 286.44 12.2343C286.8 12.4959 287.398 13.0944 287.592 13.3817C287.925 13.8366 288.024 14.3615 288.024 14.8403V18.2124H281.525ZM285.623 14.8882C285.623 14.8882 285.623 14.7685 285.6 14.7445C285.455 14.5052 285.095 14.1717 284.809 14.0041C284.759 13.9802 284.709 13.9802 284.663 13.9802H282.483C282.243 13.9802 281.763 14.3855 281.545 14.7445C281.525 14.7924 281.525 14.8882 281.525 14.8882V15.9655H285.623V14.8882Z"
     fill="#707173"
     id="path23"
     style="fill:#d9d9d9;fill-opacity:1" />
  <path
     d="M297.606 22.159V14.8899C297.606 14.866 297.606 14.7941 297.582 14.7463C297.438 14.4829 297.103 14.1717 296.835 14.0041C296.813 13.9802 296.719 13.9802 296.647 13.9802H294.969C294.511 13.9802 293.863 14.6266 293.551 14.9617V22.1607H291.157V13.9545L290.915 11.8256H293.292L293.385 12.3762C293.817 12.065 294.345 11.7076 294.897 11.7076H296.671C297.269 11.7076 297.942 11.8974 298.422 12.2326C298.777 12.4959 299.38 13.0944 299.572 13.38C299.905 13.8348 300.003 14.3615 300.003 14.8403V22.159H297.606Z"
     fill="#707173"
     id="path24"
     style="fill:#d9d9d9;fill-opacity:1" />
  <path
     d="M78.8945 46.8105L75.9841 41.7336H73.2143V46.8105H71.5449V34.6235H77.2868C77.7547 34.6235 78.2843 34.786 78.6511 35.051C78.9356 35.2545 79.5663 35.8838 79.7292 36.1266C79.9537 36.472 80.0754 36.879 80.0754 37.2843V39.1122C80.0754 39.5192 79.9537 39.9039 79.7292 40.2511C79.5663 40.4939 78.9356 41.1231 78.6511 41.3266C78.406 41.5096 77.9792 41.7131 77.693 41.6926L80.7061 46.8105H78.8945ZM78.406 37.3253C78.406 37.2843 78.406 37.1218 78.3837 37.1013C78.2637 36.879 77.6724 36.2292 77.3862 36.2087H77.2662H73.2143V40.1485H77.2662C77.633 40.1485 78.2226 39.579 78.3837 39.2952C78.406 39.2747 78.406 39.1122 78.406 39.0729V37.3253Z"
     fill="#707173"
     id="path25"
     style="fill:#d9d9d9;fill-opacity:1" />
  <path
     d="M89.0105 46.5062C88.6437 46.7712 88.1141 46.9132 87.6273 46.9132H85.5482C85.0615 46.9132 84.5113 46.7712 84.1445 46.5062C83.8394 46.2822 83.3286 45.7538 83.1675 45.5315C82.9224 45.2066 82.8213 44.7996 82.8213 44.3738V40.4939C82.8213 40.0681 82.9241 39.6611 83.1675 39.3363C83.3303 39.1122 83.8411 38.5856 84.1445 38.3616C84.5113 38.0965 85.0615 37.9546 85.5482 37.9546H87.5845C88.0712 37.9546 88.6231 38.0965 88.9882 38.3616C89.2933 38.5856 89.8041 39.1122 89.9635 39.3363C90.2103 39.6817 90.2909 40.0869 90.2909 40.4939V43.1153H84.4067V44.3328C84.4067 44.4542 84.4273 44.5363 84.4444 44.5568C84.6073 44.8407 85.1575 45.4289 85.5448 45.4289H87.6633C87.785 45.4289 87.845 45.3896 87.9084 45.369C88.1929 45.2271 88.5974 44.8201 88.7414 44.5568L88.8631 44.3328L90.3491 44.8201C90.0886 45.4289 89.5196 46.1608 89.0105 46.5062ZM88.7054 40.5349C88.7054 40.4939 88.7054 40.352 88.6831 40.3109C88.5203 40.0271 88.0935 39.6611 87.8073 39.4987C87.7473 39.4782 87.6856 39.4371 87.5639 39.4371H85.5465C85.1592 39.4371 84.609 40.0271 84.4462 40.3109C84.4273 40.3315 84.4084 40.4118 84.4084 40.5349V41.6516H88.7037V40.5349H88.7054Z"
     fill="#707173"
     id="path26"
     style="fill:#d9d9d9;fill-opacity:1" />
  <path
     d="M99.0799 46.8105L98.9994 46.0991C98.5932 46.4651 97.9813 46.8926 97.4105 46.8926H95.8834C95.3949 46.8926 94.8464 46.7489 94.4796 46.4856C94.1745 46.2616 93.6655 45.7349 93.5027 45.5109C93.2576 45.1655 93.1787 44.7602 93.1787 44.3515V38.0554H94.7676V44.3122C94.7676 44.3515 94.7676 44.4952 94.7864 44.5362C94.951 44.8201 95.3795 45.2065 95.664 45.369C95.724 45.3895 95.784 45.4083 95.9091 45.4083H97.354C97.743 45.4083 98.7166 44.6371 98.9223 44.3738V38.0554H100.509V45.1843L100.674 46.8105H99.0799Z"
     fill="#707173"
     id="path27"
     style="fill:#d9d9d9;fill-opacity:1" />
  <path
     d="M105.753 39.5397V44.1908C105.753 44.3328 105.773 44.4354 105.792 44.4542C105.955 44.7397 106.323 45.1057 106.608 45.2681C106.647 45.2869 106.771 45.328 106.892 45.328H108.419V46.8105H106.873C106.387 46.8105 105.855 46.6703 105.487 46.4053C105.182 46.183 104.674 45.6323 104.51 45.4101C104.266 45.0629 104.164 44.6611 104.164 44.2336V39.5414H102.719V38.0589H104.164V34.627H105.754V38.0589H108.44V39.5414H105.753V39.5397Z"
     fill="#707173"
     id="path28"
     style="fill:#d9d9d9;fill-opacity:1" />
  <path
     d="M111.203 46.8105C111.162 46.5249 111.141 46.2821 111.1 46.0598C111.059 45.8358 111.04 45.6529 111.04 45.4904V34.6235H112.584V45.2476C112.584 45.6734 112.689 46.2411 112.788 46.8105H111.203Z"
     fill="#707173"
     id="path29"
     style="fill:#d9d9d9;fill-opacity:1" />
  <path
     d="M116.249 34.5234H117.999V36.2488H116.249V34.5234ZM116.331 38.058H117.92V46.813H116.331V38.058Z"
     fill="#707173"
     id="path30"
     style="fill:#d9d9d9;fill-opacity:1" />
  <path
     d="M126.535 46.8105V40.5349C126.535 40.4939 126.535 40.3503 126.515 40.3109C126.352 40.0254 125.925 39.6406 125.639 39.4782C125.579 39.4577 125.517 39.4371 125.394 39.4371H123.947C123.562 39.4371 122.583 40.2289 122.381 40.4939V46.8105H120.792V39.6817L120.629 38.0555H122.218L122.3 38.7668C122.706 38.4009 123.316 37.9546 123.887 37.9546H125.416C125.903 37.9546 126.453 38.0965 126.818 38.3616C127.125 38.5839 127.636 39.1105 127.795 39.3362C128.042 39.6817 128.122 40.0869 128.122 40.4939V46.8105H126.535Z"
     fill="#707173"
     id="path31"
     style="fill:#d9d9d9;fill-opacity:1" />
  <path
     d="M138.318 39.701V47.7259C138.318 48.1499 138.238 48.5586 137.993 48.904C137.83 49.1263 137.321 49.6547 137.017 49.8787C136.649 50.1421 136.078 50.3045 135.612 50.3045H133.574C133.108 50.3045 132.557 50.1421 132.189 49.8787C131.723 49.5521 131.071 48.7826 130.825 48.1722L132.312 47.6848C132.516 48.0918 133.063 48.822 133.514 48.822H135.589C135.711 48.822 135.771 48.7826 135.835 48.7604C136.059 48.639 136.71 48.0918 136.729 47.8473V47.6848V46.139C136.323 46.5067 135.732 46.9136 135.163 46.9136H133.49C133.025 46.9136 132.455 46.7717 132.088 46.5067C131.781 46.2827 131.272 45.7355 131.111 45.5115C130.864 45.166 130.785 44.7608 130.785 44.3333V40.5354C130.785 40.1079 130.866 39.701 131.111 39.3573C131.274 39.1333 131.783 38.5844 132.088 38.3621C132.455 38.097 133.025 37.9551 133.49 37.9551H135.163C135.771 37.9551 136.383 38.4219 136.812 38.8084L136.894 38.056H138.481L138.318 39.701ZM136.75 40.6158C136.505 40.3319 135.529 39.4376 135.103 39.4376H133.514C133.392 39.4376 133.33 39.4787 133.267 39.4992C132.982 39.6616 132.556 40.0669 132.391 40.3508C132.372 40.3713 132.35 40.4534 132.35 40.5748V44.294C132.35 44.4154 132.374 44.4957 132.391 44.5163C132.556 44.8001 132.982 45.2259 133.267 45.3901C133.329 45.4089 133.39 45.4294 133.514 45.4294H135.103C135.183 45.4294 135.243 45.4294 135.283 45.4089C135.732 45.1849 136.464 44.6171 136.748 44.2512V40.6158H136.75Z"
     fill="#707173"
     id="path32"
     style="fill:#d9d9d9;fill-opacity:1" />
  <path
     d="M147.269 46.5066C146.901 46.7717 146.375 46.9136 145.885 46.9136H143.807C143.319 46.9136 142.77 46.7717 142.402 46.5066C142.097 46.2826 141.588 45.7543 141.428 45.532C141.18 45.2071 141.082 44.8001 141.082 44.3743V40.4944C141.082 40.0686 141.181 39.6616 141.428 39.3367C141.589 39.1127 142.098 38.5861 142.402 38.3621C142.77 38.097 143.319 37.9551 143.807 37.9551H145.843C146.33 37.9551 146.88 38.097 147.247 38.3621C147.552 38.5861 148.063 39.1127 148.222 39.3367C148.468 39.6822 148.55 40.0874 148.55 40.4944V43.1158H142.664V44.3333C142.664 44.4547 142.685 44.5368 142.703 44.5573C142.868 44.8411 143.416 45.4294 143.804 45.4294H145.922C146.042 45.4294 146.102 45.39 146.166 45.3695C146.452 45.2276 146.858 44.8206 147.002 44.5573L147.124 44.3333L148.606 44.8206C148.348 45.4294 147.78 46.1612 147.269 46.5066ZM146.963 40.5354C146.963 40.4944 146.963 40.3525 146.944 40.3114C146.779 40.0276 146.353 39.6616 146.068 39.4992C146.006 39.4787 145.945 39.4376 145.821 39.4376H143.806C143.418 39.4376 142.87 40.0276 142.705 40.3114C142.685 40.3319 142.666 40.4123 142.666 40.5354V41.652H146.961V40.5354H146.963Z"
     fill="#707173"
     id="path33"
     style="fill:#d9d9d9;fill-opacity:1" />
  <path
     d="M156.967 46.811V40.5354C156.967 40.4944 156.967 40.3508 156.946 40.3114C156.783 40.0259 156.355 39.6411 156.07 39.4787C156.007 39.4581 155.949 39.4376 155.825 39.4376H154.379C153.991 39.4376 153.014 40.2293 152.812 40.4944V46.811H151.221V39.6822L151.059 38.056H152.646L152.731 38.7673C153.134 38.4014 153.748 37.9551 154.319 37.9551H155.846C156.334 37.9551 156.884 38.097 157.251 38.3621C157.555 38.5844 158.065 39.111 158.228 39.3367C158.472 39.6822 158.552 40.0874 158.552 40.4944V46.811H156.967Z"
     fill="#707173"
     id="path34"
     style="fill:#d9d9d9;fill-opacity:1" />
  <path
     d="M174.687 45.145C174.444 45.5109 173.628 46.3232 173.223 46.566C172.898 46.749 172.449 46.9131 172.063 46.9131H169.333C168.947 46.9131 168.479 46.749 168.153 46.566C167.745 46.3232 166.93 45.5109 166.686 45.145C166.465 44.8201 166.383 44.4542 166.383 44.0882V34.6235H168.052V44.0472C168.052 44.3516 168.99 45.1655 169.293 45.3057C169.317 45.3057 169.357 45.328 169.439 45.328H171.962C172.046 45.328 172.085 45.3057 172.104 45.3057C172.411 45.1655 173.306 44.3328 173.306 44.0472V34.6235H174.973V44.0882C174.97 44.4559 174.913 44.8201 174.687 45.145Z"
     fill="#707173"
     id="path35"
     style="fill:#d9d9d9;fill-opacity:1" />
  <path
     d="M183.567 46.8105V40.5349C183.567 40.4939 183.567 40.3503 183.548 40.3109C183.382 40.0254 182.957 39.6406 182.671 39.4782C182.611 39.4577 182.549 39.4371 182.424 39.4371H180.979C180.592 39.4371 179.615 40.2289 179.413 40.4939V46.8105H177.824V39.6817L177.659 38.0555H179.248L179.33 38.7668C179.735 38.4009 180.348 37.9546 180.917 37.9546H182.445C182.933 37.9546 183.485 38.0965 183.85 38.3616C184.157 38.5839 184.664 39.1105 184.827 39.3362C185.072 39.6817 185.151 40.0869 185.151 40.4939V46.8105H183.567Z"
     fill="#707173"
     id="path36"
     style="fill:#d9d9d9;fill-opacity:1" />
  <path
     d="M188.284 34.5227H190.036V36.2481H188.284V34.5227ZM188.363 38.0572H189.955V46.8123H188.363V38.0572Z"
     fill="#707173"
     id="path37"
     style="fill:#d9d9d9;fill-opacity:1" />
  <path
     d="M197.183 46.8102H195.288L192.233 38.0552H193.942L196.22 44.9412L198.505 38.0552H200.195L197.183 46.8102Z"
     fill="#707173"
     id="path38"
     style="fill:#d9d9d9;fill-opacity:1" />
  <path
     d="M208.336 46.5062C207.969 46.7712 207.439 46.9132 206.949 46.9132H204.875C204.389 46.9132 203.837 46.7712 203.472 46.5062C203.163 46.2822 202.654 45.7538 202.495 45.5315C202.248 45.2066 202.148 44.7996 202.148 44.3738V40.4939C202.148 40.0681 202.25 39.6611 202.495 39.3363C202.656 39.1122 203.165 38.5856 203.472 38.3616C203.837 38.0965 204.389 37.9546 204.875 37.9546H206.912C207.4 37.9546 207.949 38.0965 208.317 38.3616C208.62 38.5856 209.131 39.1122 209.292 39.3363C209.537 39.6817 209.618 40.0869 209.618 40.4939V43.1153H203.73V44.3328C203.73 44.4542 203.753 44.5363 203.772 44.5568C203.936 44.8407 204.483 45.4289 204.874 45.4289H206.99C207.112 45.4289 207.172 45.3896 207.236 45.369C207.518 45.2271 207.925 44.8201 208.068 44.5568L208.192 44.3328L209.674 44.8201C209.416 45.4289 208.845 46.1608 208.336 46.5062ZM208.027 40.5349C208.027 40.4939 208.027 40.352 208.009 40.3109C207.846 40.0271 207.419 39.6611 207.133 39.4987C207.071 39.4782 207.011 39.4371 206.889 39.4371H204.874C204.483 39.4371 203.936 40.0271 203.772 40.3109C203.751 40.3315 203.73 40.4118 203.73 40.5349V41.6516H208.026V40.5349H208.027Z"
     fill="#707173"
     id="path39"
     style="fill:#d9d9d9;fill-opacity:1" />
  <path
     d="M218.206 40.5354C217.982 40.1079 217.474 39.4376 216.988 39.4376H215.887C215.459 39.4376 214.482 40.2311 214.278 40.5354V46.811H212.693V39.6822L212.547 38.0577H214.137L214.218 38.7673C214.626 38.3826 215.236 37.9551 215.826 37.9551H216.945C217.433 37.9551 217.963 38.097 218.328 38.3621C218.796 38.6869 219.449 39.4787 219.694 40.0686L218.206 40.5354Z"
     fill="#707173"
     id="path40"
     style="fill:#d9d9d9;fill-opacity:1" />
  <path
     d="M226.728 40.5559C226.484 40.1096 225.953 39.4393 225.528 39.4393H223.348C223.248 39.4393 223.147 39.4599 223.103 39.4804C222.82 39.6223 222.494 39.966 222.331 40.2516C222.313 40.2721 222.313 40.3525 222.313 40.4756V41.0433C222.313 41.2673 222.511 41.4913 222.84 41.5118L226.22 41.7546C227.321 41.8367 228.236 42.6695 228.236 43.745V44.4359C228.236 44.8617 228.116 45.2481 227.871 45.5935C227.706 45.838 227.28 46.3049 226.975 46.5084C226.587 46.7717 226.076 46.9136 225.586 46.9136H223.147C222.659 46.9136 222.146 46.7717 221.762 46.5084C221.293 46.1835 220.701 45.4516 220.374 44.8206L221.903 44.3145C222.127 44.7625 222.494 45.2071 222.861 45.39C222.902 45.4106 223.005 45.4294 223.104 45.4294H225.569C225.936 45.4294 226.424 44.9232 226.609 44.6188C226.628 44.5966 226.647 44.5162 226.647 44.3948V43.7057C226.647 43.4817 226.423 43.2577 226.1 43.2372L222.719 43.0149C221.618 42.9328 220.722 42.1001 220.722 41.0228V40.4345C220.722 40.007 220.827 39.6223 221.068 39.2769C221.233 39.0324 221.658 38.5655 221.965 38.3621C222.352 38.0987 222.859 37.9551 223.348 37.9551H225.465C225.953 37.9551 226.465 38.0987 226.851 38.3621C227.34 38.7075 227.91 39.3983 228.255 40.0481L226.728 40.5559Z"
     fill="#707173"
     id="path41"
     style="fill:#d9d9d9;fill-opacity:1" />
  <path
     d="M231.127 34.5234H232.879V36.2488H231.127V34.5234ZM231.209 38.058H232.801V46.813H231.209V38.058Z"
     fill="#707173"
     id="path42"
     style="fill:#d9d9d9;fill-opacity:1" />
  <path
     d="M238.159 39.5397V44.1908C238.159 44.3328 238.181 44.4354 238.202 44.4542C238.365 44.7397 238.728 45.1057 239.014 45.2681C239.056 45.2869 239.177 45.328 239.301 45.328H240.83V46.8105H239.282C238.793 46.8105 238.262 46.6703 237.897 46.4053C237.588 46.183 237.081 45.6323 236.92 45.4101C236.673 45.0629 236.574 44.6611 236.574 44.2336V39.5414H235.129V38.0589H236.574V34.627H238.161V38.0589H240.85V39.5414H238.159V39.5397Z"
     fill="#707173"
     id="path43"
     style="fill:#d9d9d9;fill-opacity:1" />
  <path
     d="M246.259 50.3262H244.532L245.709 46.8122H245.404L242.393 38.0571H244.103L246.379 44.8611L248.662 38.0571H250.289L246.259 50.3262Z"
     fill="#707173"
     id="path44"
     style="fill:#d9d9d9;fill-opacity:1" />
</svg>
