<?xml version="1.0" encoding="UTF-8" standalone="no"?>
<svg
   width="512"
   height="205"
   viewBox="0 0 512 205"
   fill="none"
   version="1.1"
   id="svg44"
   sodipodi:docname="HSRT.svg"
   inkscape:version="1.3.2 (091e20ef0f, 2023-11-25, custom)"
   inkscape:export-filename="HSRT.png"
   inkscape:export-xdpi="96"
   inkscape:export-ydpi="96"
   xmlns:inkscape="http://www.inkscape.org/namespaces/inkscape"
   xmlns:sodipodi="http://sodipodi.sourceforge.net/DTD/sodipodi-0.dtd"
   xmlns="http://www.w3.org/2000/svg"
   xmlns:svg="http://www.w3.org/2000/svg">
  <defs
     id="defs44" />
  <sodipodi:namedview
     id="namedview44"
     pagecolor="#ffffff"
     bordercolor="#000000"
     borderopacity="0.25"
     inkscape:showpageshadow="2"
     inkscape:pageopacity="0.0"
     inkscape:pagecheckerboard="0"
     inkscape:deskcolor="#d1d1d1"
     inkscape:zoom="1.5541667"
     inkscape:cx="223.27077"
     inkscape:cy="17.372654"
     inkscape:window-width="2560"
     inkscape:window-height="1045"
     inkscape:window-x="0"
     inkscape:window-y="0"
     inkscape:window-maximized="1"
     inkscape:current-layer="svg44" />
  <g
     id="g2"
     transform="matrix(1.5995808,0,0,1.5995808,16.060481,44.642843)"
     style="stroke-width:0.625163">
    <path
       d="m 34.6601,58.5392 -2.696,-2.6881 v -3.4576 l 0.7695,-0.7712 v -2.6864 l -0.7695,-0.7712 h -7.701 l -1.5391,1.539 h -6.1635 l -0.3874,0.3848 v 0.7677 h 7.317 l 1.5409,-1.5389 h 6.5457 v 1.5389 h -6.1618 l -1.5391,1.5373 h -8.4705 l -2.3139,-2.305 c 0,0 0.2554,-1.7989 -0.3839,-2.6915 l -0.7713,1.1525 H 6.16005 v 0.3864 L 5.00483,49.7037 V 51.241 H 6.54398 L 5.77612,52.0088 H 5.00654 v 0.7677 l 0.38393,0.3848 h 3.10574 l -0.76958,2.305 H 6.5457 L 3.85132,53.1613 H 0.383932 L 0,53.546 v 1.1526 h 3.08003 l 5.39218,5.3847 H 3.08003 l -0.38565,0.3796 0.00171,1.1491 h 8.95211 l 1.8254,-1.9118 c 0,0 3.2394,0.3762 6.2663,-1.4705 2.0654,-1.262 4.1324,-1.563 4.1324,-1.563 l 0.0035,3.4097 h -2.6961 l -0.3857,0.3865 v 1.1491 h 0.3857 3.8513 l 4.2387,-4.2254 3.08,2.6898 h -2.3122 l -0.3856,0.3865 v 1.1491 h 0.3856 4.237 l 0.3891,-0.3831 z"
       fill="#707173"
       id="path1"
       style="fill:#d9d9d9;fill-opacity:1;stroke-width:0.625163" />
    <path
       d="m 34.6601,38.1478 -2.696,-2.6881 v -3.4575 l 0.7695,-0.7695 v -2.6881 l -0.7695,-0.7712 h -7.701 l -1.5391,1.539 h -6.1635 l -0.3874,0.3847 v 0.7678 h 7.317 l 1.5409,-1.539 h 6.5457 v 1.539 h -6.1618 l -1.5391,1.5355 -8.4705,0.0018 -2.3139,-2.3051 c 0,0 0.2554,-1.7989 -0.3839,-2.6915 l -0.7713,1.1525 H 6.16005 v 0.3865 l -1.15522,0.7678 v 1.5372 H 6.54398 L 5.77612,31.6174 H 5.00654 v 0.7678 l 0.38393,0.3847 H 8.49621 L 7.72663,35.075 H 6.5457 L 3.85132,32.7699 H 0.383932 L 0,33.153 v 1.1525 l 3.08003,0.0017 5.39218,5.3847 H 3.08003 l -0.38565,0.3796 0.00171,1.1491 h 8.95211 l 1.8254,-1.9117 c 0,0 3.2394,0.3762 6.2663,-1.4689 2.0654,-1.2637 4.1324,-1.5646 4.1324,-1.5646 l 0.0035,3.4097 h -2.6961 l -0.3857,0.3864 v 1.1491 h 0.3857 3.8513 l 4.2387,-4.2253 3.08,2.6898 h -2.3122 l -0.3856,0.3864 v 1.1491 h 0.3856 4.237 l 0.3891,-0.383 z"
       fill="#707173"
       id="path2"
       style="fill:#d9d9d9;fill-opacity:1;stroke-width:0.625163" />
    <path
       d="m 34.6601,17.758 -2.696,-2.6898 v -3.4575 l 0.7695,-0.7695 V 8.15311 L 31.9641,7.38362 h -7.701 L 22.724,8.92089 h -6.1635 l -0.3857,0.38474 v 0.76777 h 7.317 l 1.5409,-1.53726 h 6.5457 v 1.53726 h -6.1618 l -1.5391,1.5373 H 15.4053 L 13.0914,9.30563 c 0,0 0.2554,-1.79718 -0.3839,-2.68979 L 11.9362,7.76837 H 6.16005 V 8.15311 L 5.00654,8.92089 V 10.4582 H 6.5457 l -0.76958,0.766 H 5.00654 v 0.7695 l 0.38393,0.383 H 8.49621 L 7.72492,14.6852 H 6.5457 L 3.85132,12.3785 H 0.383932 L 0,12.7632 v 1.1525 l 3.08003,0.0017 5.39218,5.3813 H 3.08003 l -0.38565,0.3796 0.00171,1.1525 h 8.95211 l 1.8254,-1.9134 c 0,0 3.2394,0.3762 6.2663,-1.4689 2.0654,-1.2619 4.1324,-1.5646 4.1324,-1.5646 l 0.0035,3.4114 h -2.6961 l -0.3857,0.383 v 1.1525 h 0.3857 3.8513 l 4.2387,-4.2253 3.08,2.6898 h -2.3122 l -0.3856,0.383 v 1.1525 h 0.3856 4.237 l 0.3891,-0.383 z"
       fill="#707173"
       id="path3"
       style="fill:#d9d9d9;fill-opacity:1;stroke-width:0.625163" />
    <path
       d="M 55.6851,4.11248 V 68.2279 l -4.1187,4.1125 V 0 Z"
       fill="#707173"
       id="path4"
       style="fill:#d9d9d9;fill-opacity:1;stroke-width:0.625163" />
    <path
       d="M 79.3561,22.159 V 16.2511 H 74.1284 V 22.159 H 71.6123 V 7.85681 h 2.5161 v 6.00199 h 5.2277 V 7.85681 h 2.5161 V 22.159 Z"
       fill="#707173"
       id="path5"
       style="fill:#d9d9d9;fill-opacity:1;stroke-width:0.625163" />
    <path
       d="m 93.8484,20.6051 c -0.1902,0.289 -0.7918,0.9097 -1.1501,1.1731 -0.4799,0.3351 -1.1518,0.5027 -1.7499,0.5027 h -2.2539 c -0.5999,0 -1.2461,-0.1676 -1.726,-0.5027 -0.3599,-0.2634 -0.9838,-0.8841 -1.1775,-1.1731 -0.3325,-0.4531 -0.4062,-0.9798 -0.4062,-1.4586 v -4.304 c 0,-0.4788 0.0737,-1.0055 0.4062,-1.4603 0.1919,-0.2873 0.8176,-0.8841 1.1775,-1.1474 0.4799,-0.3352 1.1261,-0.5267 1.726,-0.5267 h 2.2539 c 0.5981,0 1.2683,0.1915 1.7499,0.5267 0.3583,0.2633 0.9599,0.8601 1.1501,1.1474 0.336,0.4548 0.408,0.9815 0.408,1.4603 v 4.304 c 0,0.4788 -0.072,1.0055 -0.408,1.4586 z m -6.0658,-1.3389 c 0,0.1915 0.5039,0.5506 0.7919,0.7182 0,0 0.0463,0.0239 0.144,0.0239 h 2.2059 c 0.048,0 0.096,-0.0239 0.1422,-0.0478 0.216,-0.1197 0.7679,-0.5028 0.7919,-0.6943 v -4.3536 c 0,-0.0239 0,-0.0701 -0.024,-0.1419 -0.144,-0.2394 -0.5039,-0.5985 -0.7919,-0.7661 -0.0462,-0.0239 -0.0702,-0.0239 -0.1182,-0.0239 h -2.2059 c -0.0463,0 -0.0737,0 -0.12,0.0239 -0.2862,0.1676 -0.6222,0.4788 -0.7902,0.7661 -0.0257,0.0462 -0.0257,0.1419 -0.0257,0.1419 z"
       fill="#707173"
       id="path6"
       style="fill:#d9d9d9;fill-opacity:1;stroke-width:0.625163" />
    <path
       d="m 100.21,19.1221 c 0,0 0,0.0718 0.046,0.1436 0.17,0.2873 0.48,0.5267 0.767,0.6926 0,0 0.099,0.0495 0.145,0.0495 h 2.348 c 0.24,0 0.744,-0.4548 0.888,-0.6224 0,0 0.026,-0.0239 0.074,-0.0957 l 2.23,0.6686 c -0.242,0.5745 -1.15,1.5081 -1.536,1.7715 -0.456,0.3095 -1.152,0.5489 -1.728,0.5489 h -2.3 c -0.601,0 -1.2698,-0.1676 -1.7497,-0.501 -0.36,-0.2634 -0.9599,-0.8858 -1.1518,-1.1731 -0.3325,-0.4548 -0.432,-0.9798 -0.432,-1.4586 v -4.3057 c 0,-0.4788 0.0995,-1.0037 0.432,-1.4586 0.1919,-0.2873 0.7918,-0.8858 1.1518,-1.1474 0.4799,-0.3351 1.1497,-0.5267 1.7497,-0.5267 h 2.206 c 0.574,0 1.27,0.2873 1.726,0.5968 0.382,0.2634 1.318,1.197 1.558,1.7716 l -2.254,0.6685 c 0,0 -0.024,-0.0478 -0.072,-0.0957 -0.144,-0.1676 -0.648,-0.6686 -0.886,-0.6686 h -2.254 c -0.046,0 -0.096,0 -0.145,0.0239 -0.287,0.1659 -0.623,0.4292 -0.791,0.7165 -0.024,0.0479 -0.024,0.1676 -0.024,0.1676 v 4.2339 z"
       fill="#707173"
       id="path7"
       style="fill:#d9d9d9;fill-opacity:1;stroke-width:0.625163" />
    <path
       d="m 115.696,14.9122 c 0,-0.0719 -0.026,-0.1197 -0.026,-0.1197 -0.168,-0.2873 -0.504,-0.6225 -0.764,-0.7883 -0.026,-0.024 -0.072,-0.024 -0.146,-0.024 h -1.652 c -0.316,0 -1.178,0.7165 -1.464,1.0756 v 7.1032 h -2.398 V 7.85681 h 2.396 v 4.42369 c 0.408,-0.2856 0.91,-0.5728 1.414,-0.5728 h 1.726 c 0.576,0 1.272,0.1915 1.726,0.5266 0.386,0.2617 0.962,0.908 1.152,1.1714 0.314,0.4548 0.432,0.9336 0.432,1.4586 v 7.2947 h -2.396 z"
       fill="#707173"
       id="path8"
       style="fill:#d9d9d9;fill-opacity:1;stroke-width:0.625163" />
    <path
       d="m 124.234,20.0083 h 2.638 c 0.288,0 0.862,-0.5266 0.862,-0.8601 v -0.5745 c 0,-0.1197 -0.048,-0.3113 -0.312,-0.3352 -0.838,-0.0718 -2.564,-0.1915 -3.931,-0.3112 -1.271,-0.0958 -2.253,-0.9097 -2.253,-2.4401 v -0.7165 c 0,-0.5267 0.119,-1.0294 0.432,-1.4603 0.67,-0.9559 1.582,-1.6023 2.78,-1.6023 h 2.302 c 0.574,0 1.27,0.2394 1.726,0.5506 0.386,0.2634 1.32,1.1953 1.558,1.7699 l -2.254,0.6686 c 0,0 -0.024,-0.0462 -0.072,-0.0941 -0.144,-0.1676 -0.648,-0.6224 -0.887,-0.6224 h -2.301 c 0,0 -0.216,0 -0.313,0.0479 -0.096,0.0478 -0.407,0.2872 -0.549,0.5506 0,0 -0.025,0.0479 -0.025,0.2394 v 0.5711 c 0,0.0718 0.118,0.2873 0.358,0.3112 0.624,0.0718 2.447,0.2155 3.764,0.3591 1.294,0.1436 2.374,0.8858 2.374,2.4641 v 0.6686 c 0,0.5266 -0.144,1.0294 -0.456,1.4603 -0.192,0.2856 -0.695,0.8362 -1.078,1.0995 -0.479,0.3352 -1.106,0.5267 -1.702,0.5267 h -2.59 c -0.574,0 -1.27,-0.2634 -1.726,-0.5746 -0.384,-0.2633 -1.294,-1.1953 -1.536,-1.7698 l 2.23,-0.6703 0.07,0.0957 c 0.149,0.1676 0.651,0.6242 0.891,0.6481 z"
       fill="#707173"
       id="path9"
       style="fill:#d9d9d9;fill-opacity:1;stroke-width:0.625163" />
    <path
       d="m 135.171,19.1226 c 0,0 0,0.0718 0.047,0.1436 0.169,0.2873 0.479,0.5267 0.766,0.6925 0,0 0.097,0.0496 0.145,0.0496 h 2.349 c 0.24,0 0.743,-0.4548 0.887,-0.6224 0,0 0.026,-0.0239 0.072,-0.0958 l 2.232,0.6686 c -0.242,0.5746 -1.15,1.5082 -1.536,1.7716 -0.456,0.3095 -1.152,0.5489 -1.727,0.5489 h -2.299 c -0.601,0 -1.27,-0.1676 -1.75,-0.5011 -0.36,-0.2633 -0.96,-0.8857 -1.152,-1.173 -0.334,-0.4548 -0.432,-0.9798 -0.432,-1.4586 v -4.3057 c 0,-0.4788 0.098,-1.0038 0.432,-1.4586 0.192,-0.2873 0.792,-0.8858 1.152,-1.1474 0.48,-0.3352 1.15,-0.5267 1.75,-0.5267 h 2.206 c 0.574,0 1.268,0.2873 1.726,0.5968 0.382,0.2633 1.318,1.197 1.558,1.7715 l -2.254,0.6686 c 0,0 -0.024,-0.0478 -0.072,-0.0957 -0.144,-0.1676 -0.648,-0.6686 -0.886,-0.6686 h -2.254 c -0.048,0 -0.096,0 -0.146,0.0239 -0.286,0.1659 -0.622,0.4292 -0.79,0.7165 -0.024,0.0479 -0.024,0.1676 -0.024,0.1676 z"
       fill="#707173"
       id="path10"
       style="fill:#d9d9d9;fill-opacity:1;stroke-width:0.625163" />
    <path
       d="m 150.66,14.9122 c 0,-0.0719 -0.025,-0.1197 -0.025,-0.1197 -0.167,-0.2873 -0.503,-0.6225 -0.766,-0.7883 -0.024,-0.024 -0.074,-0.024 -0.144,-0.024 h -1.654 c -0.314,0 -1.176,0.7165 -1.464,1.0756 v 7.1032 h -2.398 V 7.85681 h 2.398 v 4.42369 c 0.406,-0.2856 0.91,-0.5728 1.416,-0.5728 h 1.724 c 0.576,0 1.27,0.1915 1.728,0.5266 0.382,0.2617 0.958,0.908 1.15,1.1714 0.313,0.4548 0.432,0.9336 0.432,1.4586 v 7.2947 h -2.397 z"
       fill="#707173"
       id="path11"
       style="fill:#d9d9d9;fill-opacity:1;stroke-width:0.625163" />
    <path
       d="m 162.899,22.1595 -0.072,-0.5985 c -0.43,0.3113 -0.958,0.6943 -1.51,0.6943 h -1.799 c -0.602,0 -1.271,-0.1676 -1.75,-0.5027 -0.362,-0.2634 -0.96,-0.8841 -1.151,-1.1714 -0.335,-0.4548 -0.431,-0.9815 -0.431,-1.4586 v -7.2947 h 2.396 v 7.2486 c 0,0.0239 0,0.1197 0.025,0.1675 0.143,0.2617 0.527,0.5489 0.789,0.7165 0.05,0.024 0.074,0.024 0.146,0.024 h 1.7 c 0.241,0 1.105,-0.6208 1.417,-0.9559 v -7.2007 h 2.393 v 8.2044 l 0.216,2.1289 h -2.369 z"
       fill="#707173"
       id="path12"
       style="fill:#d9d9d9;fill-opacity:1;stroke-width:0.625163" />
    <path
       d="m 168.677,22.159 c -0.072,-0.4788 -0.239,-1.3149 -0.239,-1.7698 V 7.85681 h 2.397 V 20.1259 c 0,0.4548 0.118,0.9575 0.216,2.0331 z"
       fill="#707173"
       id="path13"
       style="fill:#d9d9d9;fill-opacity:1;stroke-width:0.625163" />
    <g
       id="g1"
       style="stroke-width:0.625163">
      <path
         d="m 176.883,18.2129 v 0.9097 c 0,0.0718 0.02,0.1197 0.02,0.1197 0.218,0.3591 0.698,0.766 0.938,0.766 h 2.326 c 0.238,0 0.742,-0.4548 0.886,-0.6224 0.026,-0.0239 0.074,-0.0958 0.074,-0.0958 l 2.23,0.6686 c -0.24,0.5746 -1.152,1.5082 -1.536,1.7716 -0.456,0.3095 -1.152,0.5489 -1.724,0.5489 h -2.256 c -0.598,0 -1.27,-0.1676 -1.75,-0.5011 -0.356,-0.2633 -0.96,-0.8857 -1.148,-1.1491 -0.316,-0.4309 -0.46,-0.9558 -0.46,-1.4825 v -4.3057 c 0,-0.525 0.144,-1.0277 0.46,-1.4586 0.188,-0.2633 0.792,-0.8858 1.148,-1.1474 0.48,-0.3352 1.154,-0.5267 1.75,-0.5267 h 2.206 c 0.601,0 1.27,0.1915 1.75,0.5267 0.36,0.2616 0.958,0.8601 1.152,1.1474 0.332,0.4548 0.43,0.9798 0.43,1.4586 v 3.3721 z m 4.098,-3.3242 c 0,0 0,-0.1197 -0.024,-0.1437 -0.144,-0.2394 -0.504,-0.5728 -0.79,-0.7404 -0.05,-0.0239 -0.1,-0.0239 -0.146,-0.0239 h -2.18 c -0.24,0 -0.72,0.4052 -0.938,0.7643 -0.02,0.0479 -0.02,0.1437 -0.02,0.1437 v 1.0773 h 4.098 z"
         fill="#707173"
         id="path14"
         style="fill:#d9d9d9;fill-opacity:1;stroke-width:0.625163" />
    </g>
    <path
       d="m 200.669,22.1602 -3.214,-5.6685 h -2.303 v 5.6685 h -2.516 V 7.88196 h 6.734 c 0.578,0 1.251,0.19151 1.729,0.52667 0.335,0.2394 1.053,1.00375 1.27,1.31497 0.287,0.4309 0.432,0.9559 0.432,1.4586 v 2.0571 c 0,0.5267 -0.145,1.0277 -0.432,1.4586 -0.217,0.3112 -0.935,1.0294 -1.27,1.2688 -0.19,0.1419 -0.601,0.3112 -0.889,0.3574 l 3.431,5.8361 z m -0.386,-10.9541 c 0,0 0.001,-0.1436 -0.022,-0.1675 -0.145,-0.2634 -0.529,-0.7422 -0.766,-0.7644 h -0.123 -4.218 v 3.8269 h 4.218 c 0.217,0 0.697,-0.4788 0.891,-0.8139 0,0 0.022,-0.0479 0.022,-0.0958 v -1.9853 z"
       fill="#707173"
       id="path15"
       style="fill:#d9d9d9;fill-opacity:1;stroke-width:0.625163" />
    <path
       d="m 208.777,18.2129 v 0.9097 c 0,0.0718 0.026,0.1197 0.026,0.1197 0.216,0.3591 0.696,0.766 0.934,0.766 h 2.324 c 0.242,0 0.745,-0.4548 0.889,-0.6224 0.024,-0.0239 0.071,-0.0958 0.071,-0.0958 l 2.233,0.6686 c -0.243,0.5746 -1.155,1.5082 -1.536,1.7716 -0.454,0.3095 -1.148,0.5489 -1.726,0.5489 h -2.253 c -0.6,0 -1.269,-0.1676 -1.75,-0.5011 -0.36,-0.2633 -0.96,-0.8857 -1.152,-1.1491 -0.312,-0.4309 -0.456,-0.9558 -0.456,-1.4825 v -4.3057 c 0,-0.525 0.144,-1.0277 0.456,-1.4586 0.192,-0.2633 0.792,-0.8858 1.152,-1.1474 0.479,-0.3352 1.15,-0.5267 1.75,-0.5267 h 2.205 c 0.6,0 1.272,0.1915 1.752,0.5267 0.357,0.2616 0.958,0.8601 1.148,1.1474 0.336,0.4548 0.432,0.9798 0.432,1.4586 v 3.3721 z m 4.1,-3.3242 c 0,0 0,-0.1197 -0.024,-0.1437 -0.146,-0.2394 -0.504,-0.5728 -0.794,-0.7404 -0.044,-0.0239 -0.094,-0.0239 -0.142,-0.0239 h -2.182 c -0.238,0 -0.718,0.4052 -0.934,0.7643 -0.026,0.0479 -0.026,0.1437 -0.026,0.1437 v 1.0773 h 4.102 z"
       fill="#707173"
       id="path16"
       style="fill:#d9d9d9;fill-opacity:1;stroke-width:0.625163" />
    <path
       d="m 225.468,22.1595 -0.072,-0.5985 c -0.432,0.3113 -0.957,0.6943 -1.51,0.6943 h -1.798 c -0.602,0 -1.272,-0.1676 -1.752,-0.5027 -0.358,-0.2634 -0.956,-0.8841 -1.15,-1.1714 -0.334,-0.4548 -0.432,-0.9815 -0.432,-1.4586 v -7.2947 h 2.399 v 7.2486 c 0,0.0239 0,0.1197 0.023,0.1675 0.145,0.2617 0.529,0.5489 0.792,0.7165 0.048,0.024 0.072,0.024 0.142,0.024 h 1.704 c 0.238,0 1.102,-0.6208 1.412,-0.9559 v -7.2007 h 2.398 v 8.2044 l 0.216,2.1289 h -2.372 z"
       fill="#707173"
       id="path17"
       style="fill:#d9d9d9;fill-opacity:1;stroke-width:0.625163" />
    <path
       d="m 234.384,18.9545 c 0,0 0,0.0958 0.024,0.1437 0.144,0.2633 0.598,0.79 0.934,0.79 h 1.99 v 2.2708 h -2.014 c -0.599,0 -1.247,-0.1658 -1.726,-0.501 -0.384,-0.2633 -0.961,-0.9097 -1.151,-1.173 -0.311,-0.4549 -0.456,-0.9799 -0.456,-1.5065 v -4.8786 h -1.608 v -2.2725 h 1.608 V 7.85681 h 2.398 v 3.97059 h 2.97 v 2.2725 h -2.97 v 4.8546 z"
       fill="#707173"
       id="path18"
       style="fill:#d9d9d9;fill-opacity:1;stroke-width:0.625163" />
    <path
       d="m 241.095,22.1595 c -0.07,-0.4788 -0.24,-1.315 -0.24,-1.7698 V 7.8573 h 2.397 v 12.2691 c 0,0.4548 0.118,0.9575 0.216,2.0331 z"
       fill="#707173"
       id="path19"
       style="fill:#d9d9d9;fill-opacity:1;stroke-width:0.625163" />
    <path
       d="m 247.664,7.97705 h 2.568 v 2.55815 h -2.568 z m 0.096,3.84915 h 2.396 v 10.3334 h -2.396 z"
       fill="#707173"
       id="path20"
       style="fill:#d9d9d9;fill-opacity:1;stroke-width:0.625163" />
    <path
       d="m 260.878,22.159 v -7.2691 c 0,-0.0239 0,-0.0958 -0.028,-0.1436 -0.142,-0.2634 -0.478,-0.5746 -0.744,-0.7422 -0.024,-0.0239 -0.12,-0.0239 -0.19,-0.0239 h -1.678 c -0.457,0 -1.105,0.6464 -1.416,0.9815 v 7.199 h -2.396 v -8.2062 l -0.241,-2.1289 h 2.375 l 0.094,0.5506 c 0.431,-0.3112 0.962,-0.6686 1.512,-0.6686 h 1.772 c 0.6,0 1.272,0.1898 1.752,0.525 0.357,0.2633 0.96,0.8618 1.15,1.1474 0.336,0.4548 0.43,0.9815 0.43,1.4603 v 7.3187 z"
       fill="#707173"
       id="path21"
       style="fill:#d9d9d9;fill-opacity:1;stroke-width:0.625163" />
    <path
       d="m 275.433,13.9802 v 9.0406 c 0,0.5028 -0.071,1.0534 -0.407,1.5065 -0.192,0.289 -0.792,0.8858 -1.151,1.1491 -0.48,0.3352 -1.176,0.5267 -1.75,0.5267 h -2.109 c -0.576,0 -1.271,-0.2634 -1.726,-0.5746 -0.387,-0.2633 -1.295,-1.1952 -1.535,-1.7698 l 2.228,-0.6703 c 0,0 0.029,0.0479 0.075,0.0958 0.141,0.1675 0.646,0.6463 0.886,0.6463 h 2.158 c 0.048,0 0.096,-0.0239 0.144,-0.0479 0.218,-0.1197 0.766,-0.5506 0.792,-0.7421 v -0.1659 -1.2927 c -0.408,0.2873 -0.91,0.5746 -1.416,0.5746 h -1.844 c -0.578,0 -1.268,-0.1916 -1.75,-0.5267 -0.382,-0.2633 -0.958,-0.9097 -1.152,-1.1713 -0.336,-0.4549 -0.432,-0.9816 -0.432,-1.4843 v -4.186 c 0,-0.501 0.096,-1.0277 0.432,-1.4826 0.194,-0.2633 0.77,-0.908 1.152,-1.1713 0.48,-0.3351 1.172,-0.5267 1.75,-0.5267 h 1.844 c 0.576,0 1.152,0.3113 1.584,0.6464 l 0.072,-0.5267 h 2.374 z m -3.883,6.0037 c 0,0 0.12,0 0.17,-0.0239 0.43,-0.2155 1.006,-0.7182 1.318,-1.0756 v -3.779 c -0.336,-0.3591 -1.126,-1.1252 -1.486,-1.1252 h -1.75 c -0.048,0 -0.098,0.0239 -0.144,0.0479 -0.264,0.1676 -0.626,0.5027 -0.792,0.79 -0.025,0.0479 -0.025,0.1197 -0.025,0.1197 v 4.0902 c 0,0 0,0.0941 0.025,0.142 0.166,0.2872 0.528,0.6224 0.792,0.79 0.046,0.0239 0.118,0.0239 0.144,0.0239 z"
       fill="#707173"
       id="path22"
       style="fill:#d9d9d9;fill-opacity:1;stroke-width:0.625163" />
    <path
       d="m 281.525,18.2124 v 0.9097 c 0,0.0718 0.02,0.1197 0.02,0.1197 0.218,0.3591 0.698,0.766 0.938,0.766 h 2.326 c 0.238,0 0.742,-0.4548 0.886,-0.6224 0.027,-0.0239 0.073,-0.0957 0.073,-0.0957 l 2.229,0.6686 c -0.239,0.5745 -1.151,1.5081 -1.534,1.7715 -0.458,0.3095 -1.152,0.5489 -1.725,0.5489 h -2.255 c -0.598,0 -1.272,-0.1676 -1.75,-0.501 -0.357,-0.2634 -0.96,-0.8858 -1.149,-1.1491 -0.315,-0.431 -0.459,-0.9559 -0.459,-1.4826 v -4.3057 c 0,-0.525 0.144,-1.0277 0.459,-1.4586 0.189,-0.2633 0.792,-0.8858 1.149,-1.1474 0.478,-0.3351 1.153,-0.5267 1.75,-0.5267 h 2.207 c 0.598,0 1.269,0.1916 1.75,0.5267 0.36,0.2616 0.958,0.8601 1.152,1.1474 0.333,0.4549 0.432,0.9798 0.432,1.4586 v 3.3721 z m 4.098,-3.3242 c 0,0 0,-0.1197 -0.023,-0.1437 -0.145,-0.2393 -0.505,-0.5728 -0.791,-0.7404 -0.05,-0.0239 -0.1,-0.0239 -0.146,-0.0239 h -2.18 c -0.24,0 -0.72,0.4053 -0.938,0.7643 -0.02,0.0479 -0.02,0.1437 -0.02,0.1437 v 1.0773 h 4.098 z"
       fill="#707173"
       id="path23"
       style="fill:#d9d9d9;fill-opacity:1;stroke-width:0.625163" />
    <path
       d="m 297.606,22.159 v -7.2691 c 0,-0.0239 0,-0.0958 -0.024,-0.1436 -0.144,-0.2634 -0.479,-0.5746 -0.747,-0.7422 -0.022,-0.0239 -0.116,-0.0239 -0.188,-0.0239 h -1.678 c -0.458,0 -1.106,0.6464 -1.418,0.9815 v 7.199 h -2.394 v -8.2062 l -0.242,-2.1289 h 2.377 l 0.093,0.5506 c 0.432,-0.3112 0.96,-0.6686 1.512,-0.6686 h 1.774 c 0.598,0 1.271,0.1898 1.751,0.525 0.355,0.2633 0.958,0.8618 1.15,1.1474 0.333,0.4548 0.431,0.9815 0.431,1.4603 v 7.3187 z"
       fill="#707173"
       id="path24"
       style="fill:#d9d9d9;fill-opacity:1;stroke-width:0.625163" />
    <path
       d="m 78.8945,46.8105 -2.9104,-5.0769 h -2.7698 v 5.0769 h -1.6694 v -12.187 h 5.7419 c 0.4679,0 0.9975,0.1625 1.3643,0.4275 0.2845,0.2035 0.9152,0.8328 1.0781,1.0756 0.2245,0.3454 0.3462,0.7524 0.3462,1.1577 v 1.8279 c 0,0.407 -0.1217,0.7917 -0.3462,1.1389 -0.1629,0.2428 -0.7936,0.872 -1.0781,1.0755 -0.2451,0.183 -0.6719,0.3865 -0.9581,0.366 l 3.0131,5.1179 z M 78.406,37.3253 c 0,-0.041 0,-0.2035 -0.0223,-0.224 -0.12,-0.2223 -0.7113,-0.8721 -0.9975,-0.8926 h -0.12 -4.0519 v 3.9398 h 4.0519 c 0.3668,0 0.9564,-0.5695 1.1175,-0.8533 0.0223,-0.0205 0.0223,-0.183 0.0223,-0.2223 z"
       fill="#707173"
       id="path25"
       style="fill:#d9d9d9;fill-opacity:1;stroke-width:0.625163" />
    <path
       d="m 89.0105,46.5062 c -0.3668,0.265 -0.8964,0.407 -1.3832,0.407 h -2.0791 c -0.4867,0 -1.0369,-0.142 -1.4037,-0.407 -0.3051,-0.224 -0.8159,-0.7524 -0.977,-0.9747 -0.2451,-0.3249 -0.3462,-0.7319 -0.3462,-1.1577 v -3.8799 c 0,-0.4258 0.1028,-0.8328 0.3462,-1.1576 0.1628,-0.2241 0.6736,-0.7507 0.977,-0.9747 0.3668,-0.2651 0.917,-0.407 1.4037,-0.407 h 2.0363 c 0.4867,0 1.0386,0.1419 1.4037,0.407 0.3051,0.224 0.8159,0.7506 0.9753,0.9747 0.2468,0.3454 0.3274,0.7506 0.3274,1.1576 v 2.6214 h -5.8842 v 1.2175 c 0,0.1214 0.0206,0.2035 0.0377,0.224 0.1629,0.2839 0.7131,0.8721 1.1004,0.8721 h 2.1185 c 0.1217,0 0.1817,-0.0393 0.2451,-0.0599 0.2845,-0.1419 0.689,-0.5489 0.833,-0.8122 l 0.1217,-0.224 1.486,0.4873 c -0.2605,0.6088 -0.8295,1.3407 -1.3386,1.6861 z m -0.3051,-5.9713 c 0,-0.041 0,-0.1829 -0.0223,-0.224 -0.1628,-0.2838 -0.5896,-0.6498 -0.8758,-0.8122 -0.06,-0.0205 -0.1217,-0.0616 -0.2434,-0.0616 h -2.0174 c -0.3873,0 -0.9375,0.59 -1.1003,0.8738 -0.0189,0.0206 -0.0378,0.1009 -0.0378,0.224 v 1.1167 h 4.2953 v -1.1167 z"
       fill="#707173"
       id="path26"
       style="fill:#d9d9d9;fill-opacity:1;stroke-width:0.625163" />
    <path
       d="m 99.0799,46.8105 -0.0805,-0.7114 c -0.4062,0.366 -1.0181,0.7935 -1.5889,0.7935 h -1.5271 c -0.4885,0 -1.037,-0.1437 -1.4038,-0.407 -0.3051,-0.224 -0.8141,-0.7507 -0.9769,-0.9747 -0.2451,-0.3454 -0.324,-0.7507 -0.324,-1.1594 v -6.2961 h 1.5889 v 6.2568 c 0,0.0393 0,0.183 0.0188,0.224 0.1646,0.2839 0.5931,0.6703 0.8776,0.8328 0.06,0.0205 0.12,0.0393 0.2451,0.0393 h 1.4449 c 0.389,0 1.3626,-0.7712 1.5683,-1.0345 v -6.3184 h 1.5867 v 7.1289 l 0.165,1.6262 z"
       fill="#707173"
       id="path27"
       style="fill:#d9d9d9;fill-opacity:1;stroke-width:0.625163" />
    <path
       d="m 105.753,39.5397 v 4.6511 c 0,0.142 0.02,0.2446 0.039,0.2634 0.163,0.2855 0.531,0.6515 0.816,0.8139 0.039,0.0188 0.163,0.0599 0.284,0.0599 h 1.527 v 1.4825 h -1.546 c -0.486,0 -1.018,-0.1402 -1.386,-0.4052 -0.305,-0.2223 -0.813,-0.773 -0.977,-0.9952 -0.244,-0.3472 -0.346,-0.749 -0.346,-1.1765 v -4.6922 h -1.445 v -1.4825 h 1.445 V 34.627 h 1.59 v 3.4319 h 2.686 v 1.4825 h -2.687 z"
       fill="#707173"
       id="path28"
       style="fill:#d9d9d9;fill-opacity:1;stroke-width:0.625163" />
    <path
       d="m 111.203,46.8105 c -0.041,-0.2856 -0.062,-0.5284 -0.103,-0.7507 -0.041,-0.224 -0.06,-0.4069 -0.06,-0.5694 V 34.6235 h 1.544 v 10.6241 c 0,0.4258 0.105,0.9935 0.204,1.5629 z"
       fill="#707173"
       id="path29"
       style="fill:#d9d9d9;fill-opacity:1;stroke-width:0.625163" />
    <path
       d="m 116.249,34.5234 h 1.75 v 1.7254 h -1.75 z m 0.082,3.5346 h 1.589 v 8.755 h -1.589 z"
       fill="#707173"
       id="path30"
       style="fill:#d9d9d9;fill-opacity:1;stroke-width:0.625163" />
    <path
       d="m 126.535,46.8105 v -6.2756 c 0,-0.041 0,-0.1846 -0.02,-0.224 -0.163,-0.2855 -0.59,-0.6703 -0.876,-0.8327 -0.06,-0.0205 -0.122,-0.0411 -0.245,-0.0411 h -1.447 c -0.385,0 -1.364,0.7918 -1.566,1.0568 v 6.3166 h -1.589 v -7.1288 l -0.163,-1.6262 h 1.589 l 0.082,0.7113 c 0.406,-0.3659 1.016,-0.8122 1.587,-0.8122 h 1.529 c 0.487,0 1.037,0.1419 1.402,0.407 0.307,0.2223 0.818,0.7489 0.977,0.9746 0.247,0.3455 0.327,0.7507 0.327,1.1577 v 6.3166 z"
       fill="#707173"
       id="path31"
       style="fill:#d9d9d9;fill-opacity:1;stroke-width:0.625163" />
    <path
       d="m 138.318,39.701 v 8.0249 c 0,0.424 -0.08,0.8327 -0.325,1.1781 -0.163,0.2223 -0.672,0.7507 -0.976,0.9747 -0.368,0.2634 -0.939,0.4258 -1.405,0.4258 h -2.038 c -0.466,0 -1.017,-0.1624 -1.385,-0.4258 -0.466,-0.3266 -1.118,-1.0961 -1.364,-1.7065 l 1.487,-0.4874 c 0.204,0.407 0.751,1.1372 1.202,1.1372 h 2.075 c 0.122,0 0.182,-0.0394 0.246,-0.0616 0.224,-0.1214 0.875,-0.6686 0.894,-0.9131 V 47.6848 46.139 c -0.406,0.3677 -0.997,0.7746 -1.566,0.7746 h -1.673 c -0.465,0 -1.035,-0.1419 -1.402,-0.4069 -0.307,-0.224 -0.816,-0.7712 -0.977,-0.9952 -0.247,-0.3455 -0.326,-0.7507 -0.326,-1.1782 v -3.7979 c 0,-0.4275 0.081,-0.8344 0.326,-1.1781 0.163,-0.224 0.672,-0.7729 0.977,-0.9952 0.367,-0.2651 0.937,-0.407 1.402,-0.407 h 1.673 c 0.608,0 1.22,0.4668 1.649,0.8533 l 0.082,-0.7524 h 1.587 z m -1.568,0.9148 c -0.245,-0.2839 -1.221,-1.1782 -1.647,-1.1782 h -1.589 c -0.122,0 -0.184,0.0411 -0.247,0.0616 -0.285,0.1624 -0.711,0.5677 -0.876,0.8516 -0.019,0.0205 -0.041,0.1026 -0.041,0.224 v 3.7192 c 0,0.1214 0.024,0.2017 0.041,0.2223 0.165,0.2838 0.591,0.7096 0.876,0.8738 0.062,0.0188 0.123,0.0393 0.247,0.0393 h 1.589 c 0.08,0 0.14,0 0.18,-0.0205 0.449,-0.224 1.181,-0.7918 1.465,-1.1577 v -3.6354 z"
       fill="#707173"
       id="path32"
       style="fill:#d9d9d9;fill-opacity:1;stroke-width:0.625163" />
    <path
       d="m 147.269,46.5066 c -0.368,0.2651 -0.894,0.407 -1.384,0.407 h -2.078 c -0.488,0 -1.037,-0.1419 -1.405,-0.407 -0.305,-0.224 -0.814,-0.7523 -0.974,-0.9746 -0.248,-0.3249 -0.346,-0.7319 -0.346,-1.1577 v -3.8799 c 0,-0.4258 0.099,-0.8328 0.346,-1.1577 0.161,-0.224 0.67,-0.7506 0.974,-0.9746 0.368,-0.2651 0.917,-0.407 1.405,-0.407 h 2.036 c 0.487,0 1.037,0.1419 1.404,0.407 0.305,0.224 0.816,0.7506 0.975,0.9746 0.246,0.3455 0.328,0.7507 0.328,1.1577 v 2.6214 h -5.886 v 1.2175 c 0,0.1214 0.021,0.2035 0.039,0.224 0.165,0.2838 0.713,0.8721 1.101,0.8721 h 2.118 c 0.12,0 0.18,-0.0394 0.244,-0.0599 0.286,-0.1419 0.692,-0.5489 0.836,-0.8122 l 0.122,-0.224 1.482,0.4873 c -0.258,0.6088 -0.826,1.3406 -1.337,1.686 z m -0.306,-5.9712 c 0,-0.041 0,-0.1829 -0.019,-0.224 -0.165,-0.2838 -0.591,-0.6498 -0.876,-0.8122 -0.062,-0.0205 -0.123,-0.0616 -0.247,-0.0616 h -2.015 c -0.388,0 -0.936,0.59 -1.101,0.8738 -0.02,0.0205 -0.039,0.1009 -0.039,0.224 v 1.1166 h 4.295 v -1.1166 z"
       fill="#707173"
       id="path33"
       style="fill:#d9d9d9;fill-opacity:1;stroke-width:0.625163" />
    <path
       d="m 156.967,46.811 v -6.2756 c 0,-0.041 0,-0.1846 -0.021,-0.224 -0.163,-0.2855 -0.591,-0.6703 -0.876,-0.8327 -0.063,-0.0206 -0.121,-0.0411 -0.245,-0.0411 h -1.446 c -0.388,0 -1.365,0.7917 -1.567,1.0568 v 6.3166 h -1.591 v -7.1288 l -0.162,-1.6262 h 1.587 l 0.085,0.7113 c 0.403,-0.3659 1.017,-0.8122 1.588,-0.8122 h 1.527 c 0.488,0 1.038,0.1419 1.405,0.407 0.304,0.2223 0.814,0.7489 0.977,0.9746 0.244,0.3455 0.324,0.7507 0.324,1.1577 v 6.3166 z"
       fill="#707173"
       id="path34"
       style="fill:#d9d9d9;fill-opacity:1;stroke-width:0.625163" />
    <path
       d="m 174.687,45.145 c -0.243,0.3659 -1.059,1.1782 -1.464,1.421 -0.325,0.183 -0.774,0.3471 -1.16,0.3471 h -2.73 c -0.386,0 -0.854,-0.1641 -1.18,-0.3471 -0.408,-0.2428 -1.223,-1.0551 -1.467,-1.421 -0.221,-0.3249 -0.303,-0.6908 -0.303,-1.0568 v -9.4647 h 1.669 v 9.4237 c 0,0.3044 0.938,1.1183 1.241,1.2585 0.024,0 0.064,0.0223 0.146,0.0223 h 2.523 c 0.084,0 0.123,-0.0223 0.142,-0.0223 0.307,-0.1402 1.202,-0.9729 1.202,-1.2585 v -9.4237 h 1.667 v 9.4647 c -0.003,0.3677 -0.06,0.7319 -0.286,1.0568 z"
       fill="#707173"
       id="path35"
       style="fill:#d9d9d9;fill-opacity:1;stroke-width:0.625163" />
    <path
       d="m 183.567,46.8105 v -6.2756 c 0,-0.041 0,-0.1846 -0.019,-0.224 -0.166,-0.2855 -0.591,-0.6703 -0.877,-0.8327 -0.06,-0.0205 -0.122,-0.0411 -0.247,-0.0411 h -1.445 c -0.387,0 -1.364,0.7918 -1.566,1.0568 v 6.3166 h -1.589 v -7.1288 l -0.165,-1.6262 h 1.589 l 0.082,0.7113 c 0.405,-0.3659 1.018,-0.8122 1.587,-0.8122 h 1.528 c 0.488,0 1.04,0.1419 1.405,0.407 0.307,0.2223 0.814,0.7489 0.977,0.9746 0.245,0.3455 0.324,0.7507 0.324,1.1577 v 6.3166 z"
       fill="#707173"
       id="path36"
       style="fill:#d9d9d9;fill-opacity:1;stroke-width:0.625163" />
    <path
       d="m 188.284,34.5227 h 1.752 v 1.7254 h -1.752 z m 0.079,3.5345 h 1.592 v 8.7551 h -1.592 z"
       fill="#707173"
       id="path37"
       style="fill:#d9d9d9;fill-opacity:1;stroke-width:0.625163" />
    <path
       d="m 197.183,46.8102 h -1.895 l -3.055,-8.755 h 1.709 l 2.278,6.886 2.285,-6.886 h 1.69 z"
       fill="#707173"
       id="path38"
       style="fill:#d9d9d9;fill-opacity:1;stroke-width:0.625163" />
    <path
       d="m 208.336,46.5062 c -0.367,0.265 -0.897,0.407 -1.387,0.407 h -2.074 c -0.486,0 -1.038,-0.142 -1.403,-0.407 -0.309,-0.224 -0.818,-0.7524 -0.977,-0.9747 -0.247,-0.3249 -0.347,-0.7319 -0.347,-1.1577 v -3.8799 c 0,-0.4258 0.102,-0.8328 0.347,-1.1576 0.161,-0.2241 0.67,-0.7507 0.977,-0.9747 0.365,-0.2651 0.917,-0.407 1.403,-0.407 h 2.037 c 0.488,0 1.037,0.1419 1.405,0.407 0.303,0.224 0.814,0.7506 0.975,0.9747 0.245,0.3454 0.326,0.7506 0.326,1.1576 v 2.6214 h -5.888 v 1.2175 c 0,0.1214 0.023,0.2035 0.042,0.224 0.164,0.2839 0.711,0.8721 1.102,0.8721 h 2.116 c 0.122,0 0.182,-0.0393 0.246,-0.0599 0.282,-0.1419 0.689,-0.5489 0.832,-0.8122 l 0.124,-0.224 1.482,0.4873 c -0.258,0.6088 -0.829,1.3407 -1.338,1.6861 z m -0.309,-5.9713 c 0,-0.041 0,-0.1829 -0.018,-0.224 -0.163,-0.2838 -0.59,-0.6498 -0.876,-0.8122 -0.062,-0.0205 -0.122,-0.0616 -0.244,-0.0616 h -2.015 c -0.391,0 -0.938,0.59 -1.102,0.8738 -0.021,0.0206 -0.042,0.1009 -0.042,0.224 v 1.1167 h 4.296 v -1.1167 z"
       fill="#707173"
       id="path39"
       style="fill:#d9d9d9;fill-opacity:1;stroke-width:0.625163" />
    <path
       d="m 218.206,40.5354 c -0.224,-0.4275 -0.732,-1.0978 -1.218,-1.0978 h -1.101 c -0.428,0 -1.405,0.7935 -1.609,1.0978 v 6.2756 h -1.585 v -7.1288 l -0.146,-1.6245 h 1.59 l 0.081,0.7096 c 0.408,-0.3847 1.018,-0.8122 1.608,-0.8122 h 1.119 c 0.488,0 1.018,0.1419 1.383,0.407 0.468,0.3248 1.121,1.1166 1.366,1.7065 z"
       fill="#707173"
       id="path40"
       style="fill:#d9d9d9;fill-opacity:1;stroke-width:0.625163" />
    <path
       d="m 226.728,40.5559 c -0.244,-0.4463 -0.775,-1.1166 -1.2,-1.1166 h -2.18 c -0.1,0 -0.201,0.0206 -0.245,0.0411 -0.283,0.1419 -0.609,0.4856 -0.772,0.7712 -0.018,0.0205 -0.018,0.1009 -0.018,0.224 v 0.5677 c 0,0.224 0.198,0.448 0.527,0.4685 l 3.38,0.2428 c 1.101,0.0821 2.016,0.9149 2.016,1.9904 v 0.6909 c 0,0.4258 -0.12,0.8122 -0.365,1.1576 -0.165,0.2445 -0.591,0.7114 -0.896,0.9149 -0.388,0.2633 -0.899,0.4052 -1.389,0.4052 h -2.439 c -0.488,0 -1.001,-0.1419 -1.385,-0.4052 -0.469,-0.3249 -1.061,-1.0568 -1.388,-1.6878 l 1.529,-0.5061 c 0.224,0.448 0.591,0.8926 0.958,1.0755 0.041,0.0206 0.144,0.0394 0.243,0.0394 h 2.465 c 0.367,0 0.855,-0.5062 1.04,-0.8106 0.019,-0.0222 0.038,-0.1026 0.038,-0.224 v -0.6891 c 0,-0.224 -0.224,-0.448 -0.547,-0.4685 l -3.381,-0.2223 c -1.101,-0.0821 -1.997,-0.9148 -1.997,-1.9921 v -0.5883 c 0,-0.4275 0.105,-0.8122 0.346,-1.1576 0.165,-0.2445 0.59,-0.7114 0.897,-0.9148 0.387,-0.2634 0.894,-0.407 1.383,-0.407 h 2.117 c 0.488,0 1,0.1436 1.386,0.407 0.489,0.3454 1.059,1.0362 1.404,1.686 z"
       fill="#707173"
       id="path41"
       style="fill:#d9d9d9;fill-opacity:1;stroke-width:0.625163" />
    <path
       d="m 231.127,34.5234 h 1.752 v 1.7254 h -1.752 z m 0.082,3.5346 h 1.592 v 8.755 h -1.592 z"
       fill="#707173"
       id="path42"
       style="fill:#d9d9d9;fill-opacity:1;stroke-width:0.625163" />
    <path
       d="m 238.159,39.5397 v 4.6511 c 0,0.142 0.022,0.2446 0.043,0.2634 0.163,0.2855 0.526,0.6515 0.812,0.8139 0.042,0.0188 0.163,0.0599 0.287,0.0599 h 1.529 v 1.4825 h -1.548 c -0.489,0 -1.02,-0.1402 -1.385,-0.4052 -0.309,-0.2223 -0.816,-0.773 -0.977,-0.9952 -0.247,-0.3472 -0.346,-0.749 -0.346,-1.1765 v -4.6922 h -1.445 v -1.4825 h 1.445 V 34.627 h 1.587 v 3.4319 h 2.689 v 1.4825 h -2.691 z"
       fill="#707173"
       id="path43"
       style="fill:#d9d9d9;fill-opacity:1;stroke-width:0.625163" />
    <path
       d="m 246.259,50.3262 h -1.727 l 1.177,-3.514 h -0.305 l -3.011,-8.7551 h 1.71 l 2.276,6.804 2.283,-6.804 h 1.627 z"
       fill="#707173"
       id="path44"
       style="fill:#d9d9d9;fill-opacity:1;stroke-width:0.625163" />
  </g>
</svg>
