<?xml version="1.0" encoding="UTF-8" standalone="no"?>
<!-- Created with Inkscape (http://www.inkscape.org/) -->

<svg
   width="1080"
   height="1080"
   viewBox="0 0 1080 1080"
   version="1.1"
   id="svg1"
   inkscape:version="1.3.2 (091e20ef0f, 2023-11-25, custom)"
   sodipodi:docname="IS_Square.svg"
   inkscape:export-filename="IG_Square.png"
   inkscape:export-xdpi="96"
   inkscape:export-ydpi="96"
   xmlns:inkscape="http://www.inkscape.org/namespaces/inkscape"
   xmlns:sodipodi="http://sodipodi.sourceforge.net/DTD/sodipodi-0.dtd"
   xmlns="http://www.w3.org/2000/svg"
   xmlns:svg="http://www.w3.org/2000/svg">
  <sodipodi:namedview
     id="namedview1"
     pagecolor="#ffffff"
     bordercolor="#000000"
     borderopacity="0.25"
     inkscape:showpageshadow="2"
     inkscape:pageopacity="0.0"
     inkscape:pagecheckerboard="0"
     inkscape:deskcolor="#d1d1d1"
     inkscape:document-units="px"
     showguides="true"
     inkscape:zoom="0.5466983"
     inkscape:cx="415.21988"
     inkscape:cy="664.90055"
     inkscape:window-width="2560"
     inkscape:window-height="1048"
     inkscape:window-x="0"
     inkscape:window-y="0"
     inkscape:window-maximized="1"
     inkscape:current-layer="layer1">
    <sodipodi:guide
       position="540,1080"
       orientation="1,0"
       id="guide7"
       inkscape:locked="false" />
  </sodipodi:namedview>
  <defs
     id="defs1">
    <clipPath
       clipPathUnits="userSpaceOnUse"
       id="clipPath155">
      <path
         d="m 58.961,783.842 h 113.386 v 29.701 H 58.961 Z"
         transform="translate(-95.530005,-786.38042)"
         id="path155" />
    </clipPath>
    <clipPath
       clipPathUnits="userSpaceOnUse"
       id="clipPath156">
      <path
         d="m 58.961,783.842 h 113.386 v 29.701 H 58.961 Z"
         transform="translate(-100.9589,-793.67932)"
         id="path156" />
    </clipPath>
    <clipPath
       clipPathUnits="userSpaceOnUse"
       id="clipPath157">
      <path
         d="m 58.961,783.842 h 113.386 v 29.701 H 58.961 Z"
         transform="translate(-84.798705,-783.84222)"
         id="path157" />
    </clipPath>
    <clipPath
       clipPathUnits="userSpaceOnUse"
       id="clipPath158">
      <path
         d="m 58.961,783.842 h 113.386 v 29.701 H 58.961 Z"
         transform="translate(-71.839904,-810.53252)"
         id="path158" />
    </clipPath>
    <clipPath
       clipPathUnits="userSpaceOnUse"
       id="clipPath159">
      <path
         d="m 58.961,783.842 h 113.386 v 29.701 H 58.961 Z"
         transform="translate(-62.500304,-796.29302)"
         id="path159" />
    </clipPath>
    <clipPath
       clipPathUnits="userSpaceOnUse"
       id="clipPath160">
      <path
         d="m 58.961,783.842 h 113.386 v 29.701 H 58.961 Z"
         transform="translate(-68.451802,-790.35122)"
         id="path160" />
    </clipPath>
    <clipPath
       clipPathUnits="userSpaceOnUse"
       id="clipPath161">
      <path
         d="m 58.961,783.842 h 113.386 v 29.701 H 58.961 Z"
         transform="translate(-78.915502,-789.98022)"
         id="path161" />
    </clipPath>
    <clipPath
       clipPathUnits="userSpaceOnUse"
       id="clipPath162">
      <path
         d="m 58.961,783.842 h 113.386 v 29.701 H 58.961 Z"
         transform="translate(-82.502805,-800.92802)"
         id="path162" />
    </clipPath>
  </defs>
  <g
     inkscape:label="Layer 1"
     inkscape:groupmode="layer"
     id="layer1">
    <path
       id="rect1"
       style="fill:#ff0071;fill-opacity:1;stroke:none;stroke-width:77.295;stroke-linejoin:bevel;stroke-opacity:1;paint-order:markers stroke fill"
       d="M 0,0 V 1080 H 241.18164 838.81836 1080 V 0 Z"
       sodipodi:nodetypes="ccccccc" />
    <g
       id="g8"
       transform="translate(-0.58962665,133.54315)">
      <g
         id="g6"
         transform="matrix(0.67555582,-0.06930124,0.06930124,0.67555582,-763.91563,-918.91022)">
        <path
           d="m 2119.0546,2047.5621 h -777.3711 c -32.9505,0 -59.4748,-26.5301 -59.4748,-59.4806 v -234.7754 c 0,-32.9504 26.5242,-59.4824 59.4748,-59.4824 h 665.5645 111.8066 59.4824 v 59.4824 61.5762 173.1992 c 0,32.9505 -26.5319,59.4806 -59.4824,59.4806 z"
           style="fill:#b8b8b8;fill-opacity:1;stroke:none;stroke-width:103.06;stroke-linejoin:bevel;stroke-opacity:1;paint-order:markers stroke fill"
           id="path1-5" />
        <path
           d="m 2127.3656,2032.9702 h -777.3711 c -32.9505,0 -59.4745,-26.5301 -59.4745,-59.4805 v -234.7753 c 0,-32.9504 26.524,-59.4825 59.4745,-59.4825 h 665.5645 111.8067 59.4824 v 59.4825 61.5762 173.1991 c 0,32.9504 -26.532,59.4805 -59.4825,59.4805 z"
           style="fill:#ffffff;fill-opacity:1;stroke:none;stroke-width:103.06;stroke-linejoin:bevel;stroke-opacity:1;paint-order:markers stroke fill"
           id="path1-89" />
      </g>
      <text
         xml:space="preserve"
         style="font-size:57.1266px;line-height:58.971px;font-family:DIN;-inkscape-font-specification:DIN;text-align:center;text-anchor:middle;fill:#ff0071;fill-opacity:1;stroke:#ff0071;stroke-width:1.76634;stroke-linejoin:bevel;stroke-dasharray:none;stroke-dashoffset:0;stroke-opacity:1;paint-order:markers stroke fill"
         x="513.72925"
         y="227.57393"
         id="text9"
         transform="matrix(0.99434171,-0.10200359,0.10209341,0.99521733,0,0)"><tspan
           sodipodi:role="line"
           id="tspan9"
           x="513.72925"
           y="227.57393"
           style="baseline-shift:baseline;stroke-width:1.76634">Deutschlandticket</tspan><tspan
           sodipodi:role="line"
           x="513.72925"
           y="286.54492"
           id="tspan10"
           style="font-size:41.6515px;stroke-width:1.76634">in your</tspan><tspan
           sodipodi:role="line"
           x="513.72925"
           y="350.64261"
           id="tspan11"
           style="stroke-width:1.76634">Student ID?</tspan></text>
    </g>
    <g
       id="g3"
       transform="matrix(9.0668108,0,0,9.0668108,4.2585566,9.2957409)"
       style="fill:#ffffff;fill-opacity:1;stroke-width:1.02848">
      <path
         d="M 0,0 C -0.1,-0.15 -0.441,-0.482 -0.607,-0.582 -0.74,-0.657 -0.923,-0.724 -1.081,-0.724 H -2.47 c -0.441,0 -0.798,0.366 -1.031,0.674 -0.067,0.092 -0.125,0.216 -0.225,0.433 l 0.657,0.174 c 0.033,-0.066 0.075,-0.149 0.075,-0.149 0.108,-0.192 0.349,-0.4 0.474,-0.466 0.033,-0.017 0.058,-0.017 0.075,-0.017 h 1.331 c 0.024,0 0.049,0.008 0.066,0.017 0.133,0.066 0.482,0.366 0.482,0.507 v 0.507 c 0,0.133 -0.091,0.258 -0.191,0.283 l -2.262,0.582 c -0.382,0.1 -0.59,0.483 -0.59,0.849 v 0.507 c 0,0.141 0.025,0.308 0.116,0.441 0.1,0.149 0.441,0.49 0.607,0.59 0.133,0.075 0.316,0.141 0.474,0.141 h 1.223 c 0.432,0 0.79,-0.365 1.023,-0.673 C -0.1,3.593 -0.033,3.468 0.066,3.252 L -0.599,3.06 c -0.066,0.134 -0.083,0.167 -0.083,0.167 -0.091,0.183 -0.349,0.399 -0.474,0.466 0,0 -0.025,0.008 -0.058,0.008 H -2.37 C -2.403,3.701 -2.42,3.693 -2.445,3.684 -2.57,3.626 -2.927,3.302 -2.927,3.177 V 2.703 c 0,-0.125 0.083,-0.241 0.183,-0.266 L -0.491,1.838 C -0.116,1.738 0.116,1.372 0.116,1.006 V 0.441 C 0.116,0.299 0.091,0.133 0,0 M 2.087,2.295 V 0.391 C 2.087,0.333 2.096,0.299 2.104,0.283 2.162,0.166 2.32,0.008 2.437,-0.05 2.453,-0.058 2.503,-0.075 2.553,-0.075 h 0.582 v -0.607 h -0.59 c -0.2,0 -0.416,0.058 -0.566,0.166 C 1.854,-0.424 1.647,-0.2 1.58,-0.108 1.48,0.033 1.439,0.2 1.439,0.374 V 2.295 H 0.848 V 2.902 H 1.439 V 4.308 H 2.087 V 2.902 H 3.185 V 2.295 Z M 6.478,-0.682 6.445,-0.391 C 6.279,-0.541 6.029,-0.715 5.796,-0.715 H 5.173 c -0.2,0 -0.424,0.058 -0.574,0.166 C 4.474,-0.457 4.266,-0.241 4.2,-0.15 4.1,-0.008 4.067,0.158 4.067,0.324 V 2.902 H 4.715 V 0.341 c 0,-0.017 0,-0.075 0.009,-0.091 0.066,-0.117 0.241,-0.283 0.357,-0.341 0.033,-0.017 0.05,-0.017 0.1,-0.017 h 0.59 c 0.158,0 0.558,0.316 0.641,0.424 V 2.902 H 7.06 v -2.919 l 0.067,-0.665 z m 4.183,0 -0.033,0.308 c -0.166,-0.158 -0.416,-0.35 -0.665,-0.35 H 9.314 c -0.199,0 -0.416,0.067 -0.565,0.175 -0.125,0.092 -0.333,0.308 -0.4,0.399 C 8.25,-0.008 8.208,0.158 8.208,0.333 v 1.555 c 0,0.175 0.042,0.349 0.141,0.482 0.067,0.092 0.275,0.316 0.4,0.408 0.149,0.108 0.366,0.166 0.565,0.166 h 0.649 c 0.233,0 0.474,-0.166 0.64,-0.316 v 1.68 h 0.649 V -0.017 L 11.31,-0.682 Z M 10.603,1.863 C 10.52,1.988 10.112,2.337 9.938,2.337 H 9.322 c -0.049,0 -0.066,0 -0.099,-0.017 C 9.106,2.262 8.932,2.079 8.873,1.963 8.865,1.946 8.857,1.921 8.857,1.871 V 0.349 c 0,-0.05 0.008,-0.075 0.016,-0.091 0.059,-0.117 0.233,-0.291 0.35,-0.349 0.033,-0.017 0.05,-0.025 0.099,-0.025 h 0.616 c 0.166,0 0.582,0.349 0.665,0.465 z m 1.813,2.52 h 0.749 v -0.74 h -0.749 z m 0.05,-1.481 h 0.649 v -3.584 h -0.649 z m 4.308,-3.459 c -0.15,-0.108 -0.366,-0.167 -0.566,-0.167 h -0.823 c -0.2,0 -0.424,0.059 -0.574,0.167 -0.125,0.091 -0.333,0.307 -0.399,0.399 -0.1,0.133 -0.142,0.299 -0.142,0.474 v 1.588 c 0,0.175 0.042,0.341 0.142,0.474 0.066,0.092 0.274,0.308 0.399,0.4 0.15,0.108 0.374,0.166 0.574,0.166 h 0.832 c 0.199,0 0.424,-0.058 0.573,-0.166 0.125,-0.092 0.333,-0.308 0.4,-0.4 0.099,-0.141 0.133,-0.307 0.133,-0.474 V 0.832 H 14.919 V 0.333 c 0,-0.05 0.009,-0.075 0.017,-0.092 0.05,-0.091 0.199,-0.266 0.341,-0.332 0.033,-0.017 0.066,-0.025 0.108,-0.025 h 0.84 c 0.05,0 0.066,0.008 0.1,0.025 0.116,0.058 0.282,0.224 0.341,0.332 l 0.05,0.092 0.607,-0.2 c -0.108,-0.249 -0.341,-0.549 -0.549,-0.69 m -0.1,2.445 c 0,0.016 0,0.075 -0.008,0.091 -0.059,0.117 -0.242,0.275 -0.358,0.333 -0.033,0.017 -0.05,0.025 -0.1,0.025 H 15.385 C 15.36,2.337 15.31,2.329 15.285,2.312 15.119,2.221 14.994,2.104 14.936,1.979 14.928,1.971 14.919,1.938 14.919,1.888 V 1.422 h 1.755 z m 3.992,0.008 c -0.092,0.175 -0.291,0.441 -0.491,0.441 h -0.449 c -0.175,0 -0.574,-0.324 -0.657,-0.449 v -2.57 H 18.42 v 2.919 l -0.058,0.665 h 0.64 l 0.042,-0.291 c 0.166,0.158 0.416,0.333 0.657,0.333 h 0.457 c 0.2,0 0.416,-0.05 0.566,-0.158 0.191,-0.133 0.457,-0.466 0.557,-0.707 z m 3.75,-2.453 C 24.267,-0.665 24.05,-0.724 23.851,-0.724 h -0.824 c -0.199,0 -0.424,0.059 -0.573,0.167 -0.125,0.091 -0.333,0.307 -0.4,0.399 -0.099,0.133 -0.141,0.299 -0.141,0.474 v 1.588 c 0,0.175 0.042,0.341 0.141,0.474 0.067,0.092 0.275,0.308 0.4,0.4 0.149,0.108 0.374,0.166 0.573,0.166 h 0.832 c 0.2,0 0.424,-0.058 0.574,-0.166 0.125,-0.092 0.333,-0.308 0.399,-0.4 0.1,-0.141 0.133,-0.307 0.133,-0.474 V 0.832 H 22.562 V 0.333 c 0,-0.05 0.008,-0.075 0.016,-0.092 0.05,-0.091 0.2,-0.266 0.341,-0.332 0.034,-0.017 0.067,-0.025 0.108,-0.025 h 0.84 c 0.05,0 0.067,0.008 0.1,0.025 0.117,0.058 0.283,0.224 0.341,0.332 l 0.05,0.092 0.607,-0.2 c -0.108,-0.249 -0.341,-0.549 -0.549,-0.69 m -0.1,2.445 c 0,0.016 0,0.075 -0.008,0.091 C 24.25,2.096 24.067,2.254 23.95,2.312 23.917,2.329 23.901,2.337 23.851,2.337 H 23.027 C 23.002,2.337 22.953,2.329 22.928,2.312 22.761,2.221 22.637,2.104 22.578,1.979 22.57,1.971 22.562,1.938 22.562,1.888 V 1.422 h 1.754 z m 4.1,-2.57 v 2.57 c 0,0.016 0,0.075 -0.008,0.091 C 28.35,2.096 28.167,2.262 28.05,2.32 28.034,2.329 28,2.337 27.951,2.337 H 27.36 c -0.158,0 -0.557,-0.324 -0.64,-0.433 v -2.586 h -0.649 v 2.919 l -0.067,0.665 h 0.649 l 0.033,-0.291 c 0.167,0.15 0.416,0.333 0.649,0.333 h 0.624 c 0.199,0 0.424,-0.058 0.574,-0.166 0.124,-0.092 0.332,-0.308 0.399,-0.4 0.1,-0.141 0.133,-0.307 0.133,-0.474 v -2.586 z m 4.208,0 -0.033,0.308 c -0.166,-0.158 -0.416,-0.35 -0.665,-0.35 h -0.649 c -0.2,0 -0.416,0.067 -0.566,0.175 -0.124,0.092 -0.332,0.308 -0.399,0.399 -0.1,0.142 -0.141,0.308 -0.141,0.483 v 1.555 c 0,0.175 0.041,0.349 0.141,0.482 0.067,0.092 0.275,0.316 0.399,0.408 0.15,0.108 0.366,0.166 0.566,0.166 h 0.649 c 0.233,0 0.474,-0.166 0.64,-0.316 v 1.68 h 0.649 v -4.325 l 0.058,-0.665 z m -0.058,2.545 c -0.083,0.125 -0.491,0.474 -0.665,0.474 h -0.616 c -0.05,0 -0.066,0 -0.099,-0.017 C 31.069,2.262 30.894,2.079 30.836,1.963 30.828,1.946 30.82,1.921 30.82,1.871 V 0.349 c 0,-0.05 0.008,-0.075 0.016,-0.091 0.058,-0.117 0.233,-0.291 0.35,-0.349 0.033,-0.017 0.049,-0.025 0.099,-0.025 h 0.616 c 0.166,0 0.582,0.349 0.665,0.465 z m 4.291,-2.42 c -0.149,-0.108 -0.366,-0.167 -0.565,-0.167 h -0.824 c -0.199,0 -0.424,0.059 -0.573,0.167 -0.125,0.091 -0.333,0.307 -0.4,0.399 -0.099,0.133 -0.141,0.299 -0.141,0.474 v 1.588 c 0,0.175 0.042,0.341 0.141,0.474 0.067,0.092 0.275,0.308 0.4,0.4 0.149,0.108 0.374,0.166 0.573,0.166 H 36.3 c 0.2,0 0.424,-0.058 0.574,-0.166 0.125,-0.092 0.332,-0.308 0.399,-0.4 0.1,-0.141 0.133,-0.307 0.133,-0.474 V 0.832 H 35.003 V 0.333 c 0,-0.05 0.008,-0.075 0.016,-0.092 0.05,-0.091 0.2,-0.266 0.341,-0.332 0.034,-0.017 0.067,-0.025 0.108,-0.025 h 0.84 c 0.05,0 0.067,0.008 0.1,0.025 0.117,0.058 0.283,0.224 0.341,0.332 l 0.05,0.092 0.607,-0.2 c -0.108,-0.249 -0.341,-0.549 -0.549,-0.69 m -0.1,2.445 c 0,0.016 0,0.075 -0.008,0.091 -0.058,0.117 -0.241,0.275 -0.358,0.333 -0.033,0.017 -0.049,0.025 -0.099,0.025 H 35.468 C 35.443,2.337 35.394,2.329 35.369,2.312 35.202,2.221 35.077,2.104 35.019,1.979 35.011,1.971 35.003,1.938 35.003,1.888 V 1.422 h 1.754 z m 4.1,-2.57 v 2.57 c 0,0.016 0,0.075 -0.008,0.091 -0.058,0.117 -0.241,0.283 -0.358,0.341 -0.016,0.009 -0.05,0.017 -0.099,0.017 h -0.591 c -0.158,0 -0.557,-0.324 -0.64,-0.433 v -2.586 h -0.649 v 2.919 l -0.066,0.665 h 0.648 l 0.033,-0.291 c 0.167,0.15 0.416,0.333 0.649,0.333 H 40.4 c 0.199,0 0.424,-0.058 0.574,-0.166 0.124,-0.092 0.332,-0.308 0.399,-0.4 0.1,-0.141 0.133,-0.307 0.133,-0.474 v -2.586 z m 4.707,0.532 c -0.066,-0.091 -0.274,-0.316 -0.399,-0.407 -0.15,-0.108 -0.366,-0.167 -0.566,-0.167 h -0.648 c -0.233,0 -0.474,0.167 -0.641,0.317 v -1.714 h -0.648 v 4.358 l -0.058,0.665 h 0.648 l 0.033,-0.307 c 0.167,0.158 0.416,0.349 0.666,0.349 h 0.648 c 0.2,0 0.416,-0.066 0.566,-0.175 0.125,-0.091 0.333,-0.307 0.399,-0.399 0.1,-0.141 0.142,-0.307 0.142,-0.482 V 0.333 c 0,-0.175 -0.042,-0.35 -0.142,-0.483 m -0.507,2.021 c 0,0.05 -0.008,0.083 -0.017,0.092 -0.066,0.116 -0.233,0.282 -0.349,0.349 -0.025,0.008 -0.05,0.025 -0.1,0.025 h -0.615 c -0.167,0 -0.582,-0.349 -0.666,-0.466 V 0.358 c 0.084,-0.125 0.491,-0.474 0.666,-0.474 h 0.615 c 0.05,0 0.075,0.008 0.1,0.016 0.116,0.067 0.291,0.241 0.349,0.358 0.009,0.016 0.017,0.041 0.017,0.091 z m 4.108,-2.553 -0.041,0.283 c -0.167,-0.142 -0.416,-0.325 -0.649,-0.325 h -0.732 c -0.2,0 -0.416,0.059 -0.565,0.167 -0.125,0.091 -0.325,0.299 -0.391,0.391 -0.1,0.133 -0.142,0.299 -0.142,0.474 v 0.158 c 0,0.174 0.042,0.341 0.142,0.474 0.066,0.091 0.266,0.299 0.391,0.391 0.149,0.108 0.365,0.158 0.565,0.158 h 1.347 v 0.407 c 0,0.025 0,0.067 -0.025,0.108 -0.066,0.108 -0.224,0.25 -0.341,0.308 -0.033,0.017 -0.049,0.025 -0.099,0.025 h -0.782 c -0.15,0 -0.3,-0.175 -0.383,-0.283 -0.041,-0.05 -0.108,-0.15 -0.108,-0.15 l -0.607,0.183 c 0.1,0.242 0.374,0.574 0.549,0.699 0.158,0.108 0.374,0.158 0.574,0.158 h 0.765 c 0.199,0 0.424,-0.058 0.574,-0.166 0.124,-0.092 0.332,-0.3 0.399,-0.391 0.1,-0.142 0.133,-0.316 0.133,-0.483 v -1.929 l 0.066,-0.657 z M 49.09,0.898 H 47.751 C 47.701,0.898 47.676,0.89 47.652,0.882 47.535,0.815 47.369,0.657 47.311,0.541 47.302,0.524 47.294,0.507 47.294,0.457 V 0.316 c 0,-0.05 0.008,-0.066 0.017,-0.083 0.058,-0.117 0.224,-0.258 0.341,-0.324 0.024,-0.009 0.049,-0.025 0.099,-0.025 h 0.699 c 0.033,0 0.058,0.008 0.075,0.016 0.141,0.067 0.449,0.25 0.565,0.416 z m 4.092,0.998 C 53.09,2.071 52.891,2.337 52.691,2.337 h -0.449 c -0.175,0 -0.574,-0.324 -0.657,-0.449 v -2.57 h -0.648 v 2.919 l -0.059,0.665 h 0.641 L 51.56,2.611 c 0.167,0.158 0.416,0.333 0.657,0.333 h 0.458 c 0.199,0 0.415,-0.05 0.565,-0.158 0.191,-0.133 0.457,-0.466 0.557,-0.707 z m 1.397,-2.578 -0.075,0.541 v 4.449 h 0.64 v -4.35 l 0.084,-0.64 z m 4.15,0 -0.042,0.283 c -0.166,-0.142 -0.416,-0.325 -0.649,-0.325 h -0.731 c -0.2,0 -0.416,0.059 -0.566,0.167 -0.125,0.091 -0.324,0.299 -0.391,0.391 -0.1,0.133 -0.141,0.299 -0.141,0.474 v 0.158 c 0,0.174 0.041,0.341 0.141,0.474 0.067,0.091 0.266,0.299 0.391,0.391 0.15,0.108 0.366,0.158 0.566,0.158 h 1.347 v 0.407 c 0,0.025 0,0.067 -0.025,0.108 -0.067,0.108 -0.225,0.25 -0.341,0.308 -0.033,0.017 -0.05,0.025 -0.1,0.025 h -0.782 c -0.149,0 -0.299,-0.175 -0.382,-0.283 -0.042,-0.05 -0.108,-0.15 -0.108,-0.15 l -0.607,0.183 c 0.099,0.242 0.374,0.574 0.548,0.699 0.159,0.108 0.375,0.158 0.574,0.158 h 0.765 c 0.2,0 0.425,-0.058 0.574,-0.166 0.125,-0.092 0.333,-0.3 0.399,-0.391 0.1,-0.142 0.134,-0.316 0.134,-0.483 v -1.929 l 0.066,-0.657 z m -0.075,1.58 h -1.339 c -0.05,0 -0.075,-0.008 -0.1,-0.016 C 57.099,0.815 56.932,0.657 56.874,0.541 56.866,0.524 56.857,0.507 56.857,0.457 V 0.316 c 0,-0.05 0.009,-0.066 0.017,-0.083 0.058,-0.117 0.225,-0.258 0.341,-0.324 0.025,-0.009 0.05,-0.025 0.1,-0.025 h 0.698 c 0.034,0 0.059,0.008 0.075,0.016 0.142,0.067 0.449,0.25 0.566,0.416 z m 6.104,-1.58 v 2.57 c 0,0.05 -0.008,0.075 -0.017,0.091 -0.058,0.117 -0.216,0.266 -0.332,0.333 -0.025,0.017 -0.084,0.025 -0.117,0.025 h -0.374 c -0.158,0 -0.541,-0.308 -0.624,-0.416 V 1.904 -0.682 h -0.64 v 2.57 c 0,0.05 -0.008,0.075 -0.017,0.091 C 62.579,2.096 62.413,2.254 62.296,2.32 62.271,2.337 62.213,2.337 62.18,2.337 H 61.797 61.739 C 61.523,2.32 61.24,1.979 61.149,1.871 V -0.682 H 60.5 v 2.919 l -0.058,0.665 h 0.648 l 0.034,-0.299 c 0.166,0.15 0.416,0.341 0.648,0.341 h 0.499 c 0.167,0.008 0.35,-0.042 0.491,-0.158 0.091,-0.075 0.158,-0.2 0.249,-0.308 0.109,0.108 0.333,0.258 0.458,0.341 0.141,0.075 0.291,0.125 0.424,0.125 h 0.557 c 0.158,0 0.3,-0.075 0.424,-0.166 0.125,-0.092 0.333,-0.308 0.4,-0.4 0.099,-0.141 0.133,-0.307 0.133,-0.474 v -2.586 z m 4.258,0.125 C 68.866,-0.665 68.65,-0.724 68.45,-0.724 h -0.823 c -0.2,0 -0.424,0.059 -0.574,0.167 -0.125,0.091 -0.332,0.307 -0.399,0.399 -0.1,0.133 -0.141,0.299 -0.141,0.474 v 1.588 c 0,0.175 0.041,0.341 0.141,0.474 0.067,0.092 0.274,0.308 0.399,0.4 0.15,0.108 0.374,0.166 0.574,0.166 h 0.832 c 0.199,0 0.424,-0.058 0.574,-0.166 0.124,-0.092 0.332,-0.308 0.399,-0.4 0.099,-0.141 0.133,-0.307 0.133,-0.474 V 0.832 H 67.161 V 0.333 c 0,-0.05 0.009,-0.075 0.017,-0.092 0.05,-0.091 0.2,-0.266 0.341,-0.332 0.033,-0.017 0.066,-0.025 0.108,-0.025 h 0.84 c 0.05,0 0.067,0.008 0.1,0.025 0.116,0.058 0.283,0.224 0.341,0.332 l 0.05,0.092 0.607,-0.2 c -0.108,-0.249 -0.341,-0.549 -0.549,-0.69 m -0.1,2.445 c 0,0.016 0,0.075 -0.008,0.091 -0.058,0.117 -0.241,0.275 -0.358,0.333 -0.033,0.017 -0.05,0.025 -0.1,0.025 h -0.823 c -0.025,0 -0.075,-0.008 -0.1,-0.025 C 67.361,2.221 67.236,2.104 67.178,1.979 67.17,1.971 67.161,1.938 67.161,1.888 V 1.422 h 1.755 z m 4.1,-2.57 v 2.57 c 0,0.016 0,0.075 -0.008,0.091 -0.059,0.117 -0.242,0.283 -0.358,0.341 -0.017,0.009 -0.05,0.017 -0.1,0.017 h -0.59 c -0.158,0 -0.557,-0.324 -0.641,-0.433 v -2.586 h -0.648 v 2.919 l -0.067,0.665 h 0.649 l 0.033,-0.291 c 0.166,0.15 0.416,0.333 0.649,0.333 h 0.623 c 0.2,0 0.425,-0.058 0.574,-0.166 0.125,-0.092 0.333,-0.308 0.399,-0.4 0.1,-0.141 0.134,-0.307 0.134,-0.474 v -2.586 z m 2.703,2.977 V 0.391 c 0,-0.058 0.008,-0.092 0.016,-0.108 0.059,-0.117 0.216,-0.275 0.333,-0.333 0.017,-0.008 0.066,-0.025 0.116,-0.025 h 0.582 v -0.607 h -0.59 c -0.2,0 -0.416,0.058 -0.565,0.166 -0.125,0.092 -0.333,0.316 -0.4,0.408 C 75.112,0.033 75.07,0.2 75.07,0.374 v 1.921 h -0.59 v 0.607 h 0.59 v 1.406 h 0.649 V 2.902 h 1.097 V 2.295 Z"
         style="fill:#ffffff;fill-opacity:1;fill-rule:nonzero;stroke:none;stroke-width:1.02848"
         transform="matrix(0.35277776,0,0,-0.35277776,17.784542,13.674815)"
         clip-path="url(#clipPath155)"
         id="path226" />
      <path
         d="m 0,0 h -4.762 c -1.304,0 -2.589,0.825 -3.819,2.451 l -0.005,0.005 c -0.243,0.335 -0.443,0.76 -0.805,1.543 l -0.177,0.385 2.942,0.782 0.383,-0.764 c 0.33,-0.579 1.089,-1.241 1.473,-1.448 0.037,-0.017 0.055,-0.017 0.094,-0.017 h 4.562 c 0.014,0 0.045,0.007 0.069,0.019 0.464,0.232 1.427,1.137 1.456,1.424 v 1.736 c 0,0.297 -0.207,0.579 -0.385,0.624 l -7.758,1.996 c -1.575,0.411 -2.292,1.975 -2.292,3.254 v 1.739 c 0,0.691 0.155,1.267 0.462,1.713 0.371,0.557 1.569,1.755 2.191,2.128 l 0.009,0.005 c 0.59,0.332 1.263,0.531 1.8,0.531 h 4.191 c 1.284,0 2.559,-0.824 3.789,-2.448 0.238,-0.298 0.466,-0.712 0.84,-1.523 L 4.432,13.758 1.467,12.905 1.05,13.741 c -0.269,0.537 -1.06,1.205 -1.439,1.422 -0.016,0.003 -0.04,0.006 -0.067,0.006 h -3.963 c -0.034,0 -0.043,-0.004 -0.096,-0.022 -0.009,-0.003 -0.017,-0.006 -0.026,-0.009 -0.383,-0.192 -1.367,-1.131 -1.432,-1.419 v -1.615 c 0,-0.282 0.188,-0.525 0.357,-0.567 L 2.116,9.483 C 3.476,9.12 4.462,7.776 4.462,6.287 V 4.348 C 4.462,3.658 4.307,3.083 4.002,2.637 3.639,2.094 2.445,0.917 1.809,0.536 L 1.8,0.53 C 1.209,0.198 0.537,0 0,0 M 15.24,0.143 H 12.189 V 15.026 H 7.313 v 2.937 H 20.116 V 15.026 H 15.24 Z M 31.649,0 h -3.82 C 27.176,0 26.456,0.274 26,0.53 l -0.009,0.006 c -0.614,0.368 -1.797,1.55 -2.166,2.103 -0.322,0.469 -0.487,1.036 -0.487,1.681 v 13.643 h 3.051 V 4.389 C 26.464,4.093 27.5,3.144 27.894,2.96 l 0.008,-0.004 c 0.039,-0.019 0.039,-0.019 0.069,-0.019 h 3.536 c 0.048,0 0.079,0.01 0.097,0.019 l 0.009,0.004 c 0.388,0.181 1.345,1.148 1.419,1.43 v 13.573 h 3.051 V 4.32 c 0,-0.69 -0.146,-1.225 -0.46,-1.683 C 35.252,2.083 34.072,0.904 33.458,0.536 L 33.449,0.53 C 32.859,0.198 32.186,0 31.649,0 m 11.533,0.143 h -3.05 v 17.82 h 8.397 c 0.738,0 1.55,-0.255 2.119,-0.666 0.434,-0.311 1.347,-1.225 1.599,-1.603 0.352,-0.544 0.544,-1.19 0.544,-1.822 v -2.567 c 0,-0.632 -0.182,-1.234 -0.542,-1.79 L 52.247,9.511 C 51.987,9.122 51.04,8.209 50.618,7.907 50.066,7.509 49.285,7.271 48.529,7.271 h -5.347 z m 0,10.065 H 48.5 c 0.282,0 0.912,0.547 1.215,0.982 0.007,0.014 0.025,0.079 0.025,0.172 v 2.481 c 0,0.085 -0.013,0.126 -0.038,0.201 -0.079,0.229 -0.826,0.938 -1.08,0.982 h -5.44 z M 69.332,0.143 h -3.267 l -1.283,3.82 h -6.903 l -1.311,-3.82 h -3.237 l 6.207,17.82 h 3.586 z M 58.864,6.872 h 4.935 l -2.468,7.235 z"
         style="fill:#ffffff;fill-opacity:1;fill-rule:nonzero;stroke:none;stroke-width:1.02848"
         transform="matrix(0.35277776,0,0,-0.35277776,19.699736,11.099927)"
         clip-path="url(#clipPath156)"
         id="path227" />
      <path
         d="M 0,0 V 0 29.701 C 0.696,29.005 1.086,28.615 1.782,27.919 V 1.782 C 1.086,1.086 0.696,0.696 0,0"
         style="fill:#ffffff;fill-opacity:1;fill-rule:nonzero;stroke:none;stroke-width:1.02848"
         transform="matrix(0.35277776,0,0,-0.35277776,13.998777,14.570236)"
         clip-path="url(#clipPath157)"
         id="path228" />
      <path
         d="m 0,0 -0.392,-3.188 c -2.646,0.189 -5.293,-0.882 -7.064,-2.855 l -2.496,2.02 C -7.488,-1.198 -3.736,0.316 0,0 m -6.763,-6.605 2.524,-2.043 c 0.872,0.885 2.1,1.381 3.342,1.351 l 0.396,3.223 c -2.343,0.153 -4.684,-0.793 -6.262,-2.531"
         style="fill:#ffffff;fill-opacity:1;fill-rule:nonzero;stroke:none;stroke-width:1.02848"
         transform="matrix(0.35277776,0,0,-0.35277776,9.4272009,5.1544919)"
         clip-path="url(#clipPath158)"
         id="path229" />
      <path
         d="m 0,0 -3.036,-1.046 c -1.089,3.593 -0.386,7.565 1.863,10.57 L 1.323,7.503 C -0.148,5.472 -0.792,2.709 0,0 M 4.54,4.898 2.016,6.941 C 0.645,5.032 0.204,2.554 0.844,0.29 l 3.07,1.057 C 3.623,2.609 3.88,3.896 4.54,4.898"
         style="fill:#ffffff;fill-opacity:1;fill-rule:nonzero;stroke:none;stroke-width:1.02848"
         transform="matrix(0.35277776,0,0,-0.35277776,6.1323979,10.177871)"
         clip-path="url(#clipPath159)"
         id="path230" />
      <path
         d="m 0,0 -0.722,-3.13 c -3.575,0.971 -6.592,3.59 -7.977,7.183 l 3.036,1.046 C -4.649,2.572 -2.521,0.723 0,0 m -1.749,6.446 -3.07,-1.057 c 0.887,-2.17 2.767,-3.866 5.02,-4.52 l 0.73,3.165 c -1.166,0.394 -2.151,1.255 -2.68,2.412"
         style="fill:#ffffff;fill-opacity:1;fill-rule:nonzero;stroke:none;stroke-width:1.02848"
         transform="matrix(0.35277776,0,0,-0.35277776,8.2319539,12.274005)"
         clip-path="url(#clipPath160)"
         id="path231" />
      <path
         d="m 0,0 c -2.742,-2.549 -6.64,-3.668 -10.318,-2.959 l 0.723,3.129 c 2.61,-0.465 5.359,0.324 7.325,2.101 z M -5.197,5.198 C -6.157,4.409 -7.432,4.043 -8.664,4.203 L -9.395,1.039 c 2.313,-0.396 4.744,0.299 6.494,1.863 z"
         style="fill:#ffffff;fill-opacity:1;fill-rule:nonzero;stroke:none;stroke-width:1.02848"
         transform="matrix(0.35277776,0,0,-0.35277776,11.923314,12.404886)"
         clip-path="url(#clipPath161)"
         id="path232" />
      <path
         d="m 0,0 c 0.738,-3.837 -0.468,-7.629 -2.957,-10.317 l -2.271,2.27 c 1.736,1.929 2.584,4.606 2.1,7.325 z m -7.161,-1.653 c 0.167,-1.278 -0.22,-2.523 -0.995,-3.466 l 2.297,-2.297 c 1.528,1.718 2.276,4.085 1.861,6.493 z"
         style="fill:#ffffff;fill-opacity:1;fill-rule:nonzero;stroke:none;stroke-width:1.02848"
         transform="matrix(0.35277776,0,0,-0.35277776,13.188835,8.5427459)"
         clip-path="url(#clipPath162)"
         id="path233" />
    </g>
    <g
       id="g7"
       transform="matrix(1.2476973,0,0,1.2476973,-134.89103,-61.12284)">
      <g
         id="g5"
         transform="matrix(0.77744656,0,0,0.77744656,123.06678,-458.50688)">
        <g
           id="g2"
           transform="matrix(1.5927089,0,0,1,1975.9498,1012.1408)"
           style="stroke-width:0.792377">
          <g
             id="g4"
             style="stroke-width:0.792377">
            <rect
               style="fill:#b8b8b8;fill-opacity:1;stroke:none;stroke-width:2.3878;stroke-linejoin:bevel;stroke-dasharray:none;stroke-opacity:1;paint-order:markers stroke fill"
               id="rect19"
               width="600.05103"
               height="137.56898"
               x="-1203.1069"
               y="549.77441"
               ry="54.079155"
               rx="33.954201" />
            <rect
               style="fill:#ffffff;fill-opacity:1;stroke:none;stroke-width:2.3878;stroke-linejoin:bevel;stroke-dasharray:none;stroke-opacity:1;paint-order:markers stroke fill"
               id="rect19-5"
               width="600.05103"
               height="137.56898"
               x="-1203.1069"
               y="533.94537"
               ry="54.079155"
               rx="33.954201" />
          </g>
        </g>
        <path
           d="m 140.66274,1588.8817 c -2.8192,0.089 -5.5057,0.4604 -7.0449,1.0859 -7.119,2.893 -10.3255,5.4091 -14.0136,10.9941 -2.9384,4.4498 -4.0891,9.0459 -3.8575,15.4278 0.208,5.7378 1.2028,8.9666 4.0371,13.1035 4.1253,6.0209 10.2518,10.0325 17.0215,11.1426 3.6394,0.5971 9.928,0.059 13.5254,-1.1582 6.157,-2.0831 12.2549,-7.6962 15.0801,-13.8848 3.1466,-6.8931 2.8234,-16.754 -0.7617,-23.3731 -3.0281,-5.5907 -10.2047,-11.2415 -16.1543,-12.7187 -2.0632,-0.5123 -5.0128,-0.7078 -7.8321,-0.6191 z m 12.1172,13.8593 c 1.5324,-0.085 1.7764,1.1182 0.7012,3.4239 -0.4518,0.9682 -1.9431,4.1189 -3.3125,7.0058 -1.3694,2.8871 -2.623,5.6401 -2.791,6.1152 -0.2797,0.7938 -1.9437,1.6701 -11.3848,5.9786 -4.1039,1.8726 -6.4737,2.3458 -6.8457,1.375 -0.2879,-0.7509 0.9724,-4.0019 4.0996,-10.584 1.0391,-2.1878 1.8907,-4.1783 1.8907,-4.4219 0,-0.8876 2.2407,-2.4275 6.4375,-4.4219 2.362,-1.1225 5.0969,-2.4542 6.0761,-2.957 1.9618,-1.007 3.3404,-1.4177 5.1289,-1.5137 z m -11.3925,8.4336 c -1.747,0.065 -3.3881,1.4377 -3.3731,3.584 0.016,1.8327 0.6785,3.0741 1.8926,3.5469 3.6871,1.4339 6.8058,-2.6144 4.4023,-5.7168 -0.7895,-1.0192 -1.8737,-1.4531 -2.9218,-1.4141 z"
           style="fill:#ff0071;fill-opacity:1;stroke:none;stroke-width:103.06;stroke-linejoin:bevel;stroke-opacity:1;paint-order:markers stroke fill"
           id="path1" />
        <path
           d="m 937.25556,1586.7331 c -0.80833,-0.01 -1.56375,0.2826 -2.51758,0.7129 -1.0908,0.4919 -2.3785,1.5423 -2.86328,2.3379 -0.91323,1.4979 -1.19493,5.2399 -0.47852,6.3691 0.21685,0.342 4.29476,4.5718 9.06055,9.4004 4.76575,4.8285 8.66211,9.0671 8.66211,9.4199 0,0.3529 -3.96907,4.5977 -8.81836,9.4375 -4.84919,4.8399 -9.06089,9.402 -9.36328,10.1328 -0.88788,2.1437 -0.24364,5.016 1.53711,6.8535 1.33463,1.3772 1.88671,1.6114 3.7832,1.6114 1.71214,0 2.64514,-0.3194 4.08008,-1.3946 3.1783,-2.3828 22.9406,-22.1378 23.75781,-23.75 0.88077,-1.7385 0.98784,-3.8075 0.29687,-5.625 -0.26067,-0.685 -5.68224,-6.4853 -12.04882,-12.8867 -9.80281,-9.8565 -12.66283,-12.5918 -15.08789,-12.6191 z"
           style="fill:#ff0071;fill-opacity:1;stroke:none;stroke-width:103.06;stroke-linejoin:bevel;stroke-opacity:1;paint-order:markers stroke fill"
           id="path1-9" />
      </g>
      <text
         xml:space="preserve"
         style="font-size:41.4638px;line-height:42.8026px;font-family:DIN;-inkscape-font-specification:DIN;text-align:center;text-anchor:middle;fill:#ff0071;fill-opacity:1;stroke:none;stroke-width:1.32228;stroke-linejoin:bevel;stroke-dasharray:1.32228, 5.2891;paint-order:markers stroke fill"
         x="551.79712"
         y="809.02142"
         id="text2-3"><tspan
           sodipodi:role="line"
           id="tspan2-1"
           x="551.79712"
           y="809.02142"
           style="font-size:41.4638px;line-height:42.8026px;fill:#ff0071;fill-opacity:1;stroke-width:1.32228">survey.reutlingen.university</tspan></text>
    </g>
    <g
       id="g1"
       transform="matrix(1.4852884,0,0,1.4852884,-263.55145,-395.9401)">
      <text
         xml:space="preserve"
         style="font-size:58.0494px;line-height:59.9236px;font-family:DIN;-inkscape-font-specification:DIN;text-align:center;text-anchor:middle;white-space:pre;inline-size:464.15;display:inline;fill:#b8b8b8;fill-opacity:1;stroke:none;stroke-width:1.32228;stroke-linejoin:bevel;stroke-dasharray:1.32228, 5.2891;paint-order:markers stroke fill"
         x="542.10089"
         y="708.25714"
         id="text2-4"><tspan
           x="542.10089"
           y="708.25714"
           id="tspan1">Tell us your<tspan
   y="708.25714"
   id="tspan3"> </tspan></tspan><tspan
           x="542.10089"
           y="768.18072"
           id="tspan4">opinion now!</tspan></text>
      <text
         xml:space="preserve"
         style="font-size:58.0494px;line-height:59.9236px;font-family:DIN;-inkscape-font-specification:DIN;text-align:center;text-anchor:middle;white-space:pre;inline-size:487.988;display:inline;fill:#ffffff;fill-opacity:1;stroke:none;stroke-width:1.32228;stroke-linejoin:bevel;stroke-dasharray:1.32228, 5.2891;paint-order:markers stroke fill"
         x="541.30609"
         y="706.21606"
         id="text2"><tspan
           x="541.30609"
           y="706.21606"
           id="tspan5">Tell us your<tspan
   y="706.21606"
   id="tspan6"> </tspan></tspan><tspan
           x="541.30609"
           y="766.13964"
           id="tspan7">opinion now!</tspan></text>
    </g>
  </g>
</svg>
